<?xml version="1.0"?>
<svg xmlns:rdf="http://www.w3.org/1999/02/22-rdf-syntax-ns#" xmlns="http://www.w3.org/2000/svg" xmlns:cc="http://creativecommons.org/ns#" xmlns:xlink="http://www.w3.org/1999/xlink" xmlns:dc="http://purl.org/dc/elements/1.1/" xmlns:svg="http://www.w3.org/2000/svg" id="svg2" viewBox="0 0 128 128">
  <defs id="defs4">
    <radialGradient id="radialGradient1419" gradientUnits="userSpaceOnUse" cy="469.34" cx="574.02" gradientTransform="matrix(1.592 -1.2873 1.664 2.0578 -1126.3 260.99)" r="41.5">
      <stop id="stop1336" stop-color="#fff" offset="0"/>
      <stop id="stop1338" stop-color="#fff" stop-opacity=".36458" offset="1"/>
    </radialGradient>
    <radialGradient id="radialGradient1421" gradientUnits="userSpaceOnUse" cy="525.43" cx="364.18" gradientTransform="matrix(.81243 -1.0401 .92656 .72375 -439.65 520.18)" r="88.5">
      <stop id="stop1323" stop-color="#fff" stop-opacity=".41667" offset="0"/>
      <stop id="stop1325" stop-color="#fff" stop-opacity="0" offset="1"/>
    </radialGradient>
    <radialGradient id="radialGradient1423" gradientUnits="userSpaceOnUse" cy="615.63" cx="384.16" gradientTransform="matrix(1.0452 .0064321 -.0030801 .57455 -15.462 259.16)" r="23">
      <stop id="stop1346" stop-color="#b2b2b2" offset="0"/>
      <stop id="stop1348" stop-color="#fff" stop-opacity="0" offset="1"/>
    </radialGradient>
    <filter id="filter3317" y="-.23621" width="1.3308" x="-.16539" height="1.4724">
      <feGaussianBlur id="feGaussianBlur3319" stdDeviation="3.0793147"/>
    </filter>
    <filter id="filter3369" y="-.06018" width="1.2045" x="-.10224" height="1.1204">
      <feGaussianBlur id="feGaussianBlur3371" stdDeviation="1.2131839"/>
    </filter>
  </defs>
  <g id="layer1">
    <path id="path1306" transform="matrix(.54899 .37226 -.37226 .54899 70.163 -371.59)" d="m450 548.86a88.5 88.5 0 1 1 -177 0 88.5 88.5 0 1 1 177 0z"/>
    <path id="path1308" transform="matrix(.54899 .37226 -.37226 .54899 -57.308 -421.16)" fill="url(#radialGradient1419)" d="m610 487.86a41.5 41.5 0 1 1 -83 0 41.5 41.5 0 1 1 83 0z"/>
    <path id="text1314" d="m72.335 58.287c-1.257-0.852-1.976-0.962-3.117-0.733s-2.625 0.782-3.494 2.062c-0.868 1.281-1.366 2.379-1.157 3.523 0.217 1.133 1.124 2.241 2.381 3.093 1.246 0.845 2.767 1.384 3.889 1.158 1.129-0.236 1.789-1.224 2.658-2.505 0.876-1.292 1.03-2.87 0.824-3.995-0.198-1.137-0.738-1.758-1.984-2.603m-3.403-5.544c-1.259-1.551-2.095-3.251-2.228-4.785-0.132-1.534 0.937-2.61 1.94-4.089 1.491-2.2 4.182-2.946 6.605-2.985s3.996 0.371 7.174 2.526c3.155 2.139 4.217 3.824 5.077 6.09 0.868 2.254 1.017 4.802-0.483 7.013-1.002 1.479-1.966 2.75-3.451 3.187-1.475 0.445-2.966 0.257-4.873-0.339 1.438 1.689 1.934 3.19 2.081 4.903 0.166 1.71-0.024 3.604-1.16 5.28-1.753 2.584-3.418 4.187-6.041 4.346-2.603 0.155-6.443-0.749-9.819-3.038-3.388-2.297-5.568-5.414-6.41-7.906-0.823-2.495 0.035-4.706 1.788-7.29 1.136-1.677 3.046-2.527 4.684-3.014 1.658-0.49 3.015-0.61 5.116 0.101m5.112-4.156c-0.702 1.036-1.169 1.884-0.978 2.829 0.203 0.954 1.052 1.937 2.123 2.663 1.047 0.711 2.229 1.165 3.178 0.993s1.592-0.961 2.295-1.997c0.702-1.036 0.857-2.334 0.658-3.268-0.192-0.945-0.714-1.461-1.762-2.171-1.071-0.726-1.72-0.82-2.681-0.656-0.95 0.172-2.138 0.583-2.833 1.607"/>
    <path id="path1319" transform="matrix(.54899 .37226 -.37226 .54899 70.163 -371.59)" fill="url(#radialGradient1421)" d="m450 548.86a88.5 88.5 0 1 1 -177 0 88.5 88.5 0 1 1 177 0z"/>
    <path id="path1342" filter="url(#filter3317)" transform="matrix(.93710 .28859 -.26927 .87437 -143.28 -544.32)" fill="url(#radialGradient1423)" d="m408 614.86a23 14.5 0 1 1 -46 0 23 14.5 0 1 1 46 0z"/>
    <path id="path1370" filter="url(#filter3369)" transform="matrix(.12815 .52250 -.48753 .11957 270.19 -199.43)" fill="url(#radialGradient1423)" d="m408 614.86a23 14.5 0 1 1 -46 0 23 14.5 0 1 1 46 0z"/>
  </g>
  <metadata>
    <rdf:RDF>
      <cc:Work>
        <dc:format>image/svg+xml</dc:format>
        <dc:type rdf:resource="http://purl.org/dc/dcmitype/StillImage"/>
        <cc:license rdf:resource="http://creativecommons.org/licenses/publicdomain/"/>
        <dc:publisher>
          <cc:Agent rdf:about="http://openclipart.org/">
            <dc:title>Openclipart</dc:title>
          </cc:Agent>
        </dc:publisher>
        <dc:title>Eight ball</dc:title>
        <dc:date>2009-03-09T13:20:40</dc:date>
        <dc:description>8 ball fortune teller</dc:description>
        <dc:source>http://openclipart.org/detail/21976/eight-ball-by-nicubunu</dc:source>
        <dc:creator>
          <cc:Agent>
            <dc:title>nicubunu</dc:title>
          </cc:Agent>
        </dc:creator>
        <dc:subject>
          <rdf:Bag>
            <rdf:li>ball</rdf:li>
            <rdf:li>cartoon</rdf:li>
            <rdf:li>clip art</rdf:li>
            <rdf:li>clipart</rdf:li>
            <rdf:li>fortune</rdf:li>
            <rdf:li>image</rdf:li>
            <rdf:li>media</rdf:li>
            <rdf:li>play</rdf:li>
            <rdf:li>playing</rdf:li>
            <rdf:li>png</rdf:li>
            <rdf:li>public domain</rdf:li>
            <rdf:li>svg</rdf:li>
            <rdf:li>toy</rdf:li>
          </rdf:Bag>
        </dc:subject>
      </cc:Work>
      <cc:License rdf:about="http://creativecommons.org/licenses/publicdomain/">
        <cc:permits rdf:resource="http://creativecommons.org/ns#Reproduction"/>
        <cc:permits rdf:resource="http://creativecommons.org/ns#Distribution"/>
        <cc:permits rdf:resource="http://creativecommons.org/ns#DerivativeWorks"/>
      </cc:License>
    </rdf:RDF>
  </metadata>
</svg>
