<?xml version="1.0" encoding="UTF-8" standalone="no"?>
<!-- Created with Inkscape (http://www.inkscape.org/) -->
<svg xmlns:rdf="http://www.w3.org/1999/02/22-rdf-syntax-ns#" xmlns="http://www.w3.org/2000/svg" xmlns:cc="http://web.resource.org/cc/" xmlns:dc="http://purl.org/dc/elements/1.1/" xmlns:svg="http://www.w3.org/2000/svg" xmlns:inkscape="http://www.inkscape.org/namespaces/inkscape" xmlns:sodipodi="http://sodipodi.sourceforge.net/DTD/sodipodi-0.dtd" xmlns:ns1="http://sozi.baierouge.fr" xmlns:xlink="http://www.w3.org/1999/xlink" id="svg2902" viewBox="0 0 373 588" version="1.1" inkscape:version="0.91 r13725">
  <path id="path3124" style="fill:#000000" d="m186.28 539.04c-5.8847-2.818-12.719-10.076-14.924-15.849-2.6184-6.8561-1.6369-17.492 2.4928-27.014 3.8107-8.7868 6.0031-10.165 5.3675-3.375-0.24811 2.6507-0.90641 5.1092-1.4629 5.4635-0.55646 0.35428-1.5154 3.3-2.131 6.5461-2.0075 10.585 3.3499 23.178 11.598 27.262 1.6052 0.7948 7.703 1.7096 13.551 2.033 8.9256 0.49353 11.924 0.16644 18.678-2.0376 17.083-5.5744 33.463-17.189 38.129-27.036 4.1576-8.7735 1.759-19.885-7.2478-33.577-6.4626-9.8238-9.0542-11.253-19.715-10.869-14.695 0.52931-14.352 0.42263-15.809 4.9164-1.4438 4.4539-5.7145 6.7006-4.5943 2.417 0.50504-1.9313 0.08-2.4027-2.1665-2.4027-1.5372 0-3.8463 0.73648-5.1315 1.6366-1.2852 0.90014-4.4226 2.2001-6.9722 2.8887-2.5496 0.68864-5.8377 2.4474-7.307 3.9084-7.377 7.3355-12.316 13.861-15.555 20.55-1.9672 4.0631-3.7641 7.2-3.9933 6.9709-0.91435-0.91437 5.3638-16.675 8.4368-21.18 1.802-2.6415 6.2969-7.7798 9.9888-11.418 3.6918-3.6387 6.7125-7.1648 6.7125-7.8357 0-0.67099 0.63195-1.6106 1.4044-2.0879 2.1381-1.3214 22.42-1.4 23.28-0.0903 0.45903 0.69865 2.74 0.18717 5.8369-1.3088 7.6961-3.7177 18.912-2.3849 24.944 2.9642 3.1964 2.8344 9.3277 12.306 13.036 20.138 4.0276 8.5069 4.9915 20.138 2.1378 25.798-2.8976 5.7471-16.726 19.02-22.834 21.916-2.8578 1.3553-5.984 2.9209-6.9471 3.4791-5.0907 2.9508-8.1144 4.177-15.653 6.3481-10.636 3.0628-27.613 3.4946-33.15 0.84331v0.00006zm-7.71-104.75c-0.35016-1.1236-1.1415-5.4575-1.7585-9.6309-0.61705-4.1734-1.9141-12.841-2.8824-19.262-3.896-25.834-5.553-56.347-5.4836-100.98 0.0402-25.864 0.55175-45.446 1.2501-47.855 0.65011-2.243 1.182-4.1964 1.182-4.341s-0.78799 0.0394-1.7511 0.40903c-1.2869 0.49383-1.7511-0.15374-1.7511-2.4429 0-2.4687 4.5574-7.7752 21.969-25.581 12.083-12.356 23.509-24.263 25.391-26.46 1.8818-2.1967 6.442-7.1047 10.134-10.907 3.6919-3.802 6.7125-7.1982 6.7125-7.5469 0-1.5022 9.9573-17.33 12.287-19.531 5.0488-4.7703 6.1828-27.186 1.7904-35.393-1.789-3.3428-9.1325-9.3541-12.442-10.185-1.645-0.41289-6.5748-0.49428-10.955-0.18087-6.2947 0.45038-9.5173 1.4389-15.374 4.7157-11.334 6.3415-30.933 21.375-40.68 31.204-9.5361 9.6162-21.013 22.718-21.013 23.987 0 0.4382-2.2661 4.282-5.0358 8.5417-6.2819 9.6615-12.475 21.508-12.475 23.863 0 0.98022-0.43617 1.9573-0.96926 2.1714-1.04 0.41754-8.3698 15.468-8.3698 17.186 0 0.56731-1.2894 4.8998-2.8652 9.6278-2.2941 6.8829-5.3065 26.341-5.3065 34.278 0 3.0606-3.5474 2.9527-4.7246-0.14369-0.63124-1.6603-2.955-4.9335-5.1638-7.2738-2.2089-2.3403-6.1108-7.1444-8.6711-10.676-10.694-14.751-22.299-31.464-22.299-32.115 0-0.38466-2.0602-3.7332-4.5783-7.4412-5.7608-8.4832-10.098-16.188-17.706-31.451-3.3048-6.6304-6.7346-12.334-7.6218-12.674-0.88714-0.34043-1.613-1.6868-1.613-2.992s-0.83659-2.9848-1.8591-3.7324c-1.7756-1.2983-4.5755-12.114-3.432-13.258 0.30121-0.30121 1.5498-0.60807 2.7747-0.68189 1.312-0.079 5.4486-4.2112 10.068-10.057 15.704-19.873 40.334-45.635 51.562-53.931l13.118-9.6918c4.3453-3.2103 8.7038-6.3622 9.6855-7.0043 0.98173-0.64206 4.0962-2.7258 6.921-4.6306 7.5597-5.0975 13.553-8.4656 22.063-12.4 4.1734-1.9293 8.6611-4.0391 9.9727-4.6885s3.2285-1.3046 4.2599-1.456c1.0314-0.15137 2.5849-0.8088 3.4522-1.4609 2.3435-1.762 20.555-7.2101 27.259-8.1548 3.2103-0.45234 12.403-0.8767 20.429-0.94302 11.735-0.09699 16.764 0.42049 25.682 2.6426 13.342 3.3242 30.043 10.91 40.659 18.467 13.067 9.3014 20.108 15.992 32.856 31.218 9.822 11.731 14.8 20.738 17.467 31.603 3.9402 16.052 6.0531 55.484 3.5674 66.576-0.70037 3.1252-3.0864 9.5027-5.3023 14.172-2.2159 4.6695-4.0289 8.9254-4.0289 9.4576 0 2.3884-11.946 14.149-15.068 14.835-1.8523 0.40684-4.2917 1.7606-5.4208 3.0083-1.1292 1.2477-2.5656 2.2686-3.1919 2.2686-0.62639 0-3.5656 1.7375-6.5315 3.861-6.1808 4.4253-36.509 21.821-38.043 21.821-0.56092 0-1.8492 0.69279-2.8628 1.5395-1.0136 0.84673-7.6215 4.1024-14.684 7.2347-7.0627 3.1324-13.427 6.1226-14.144 6.645-1.3285 0.96879-3.5235 10.608-4.3308 19.019-0.43924 4.5758 1.2282 55.892 2.0567 63.295 0.23133 2.0671 0.78129 7.0577 1.2221 11.09 0.44085 4.0324 2.0353 12.848 3.5431 19.589 1.5078 6.7416 3.5897 16.428 4.6262 21.526 1.296 6.3732 2.5966 9.7668 4.1636 10.864 3.2988 2.3106 2.8015 5.6023-1.286 8.5128-3.2147 2.2891-3.7594 2.3637-5.5451 0.75926-2.194-1.9713-6.1606-1.4121-26.535 3.7406-5.6604 1.4315-17.74 6.8442-18.685 8.3721-1.1451 1.8528-5.0139 1.2058-5.686-0.95089zm10.752-10.082c1.7338-0.89024 6.5669-2.4943 10.74-3.5646 4.1734-1.0703 11.303-3.0316 15.843-4.3584l8.2549-2.4124-0.28925-9.016c-0.15907-4.9588-1.0725-11.856-2.0298-15.328-4.0608-14.725-7.6054-51.688-7.5476-78.706 0.0422-19.797 1.2287-30.494 3.9699-35.795 1.72-3.3261 1.721-3.5751 0.0117-2.9191-1.295 0.49695-1.869 0.0598-1.869-1.4235 0-4.0323 4.4552-7.8356 13.043-11.135 11.12-4.272 33.082-15.285 44.105-22.116 4.7859-2.9662 9.2804-5.3931 9.9878-5.3931 0.70735 0 3.0955-1.3728 5.3069-3.0507s6.6474-4.2842 9.8577-5.7918 8.6843-5.6264 12.164-9.1529c3.4801-3.5265 6.7036-6.1794 7.1634-5.8952 1.02 0.63043 2.5884-3.9385 2.3181-6.7532-0.11113-1.1579 0.59427-2.0429 1.6283-2.0429 1.0034 0 1.7128-0.39399 1.5764-0.87554-0.13641-0.48154 0.33008-1.9262 1.0367-3.2103 4.0425-7.3468 5.6817-37.476 2.8539-52.455-0.7196-3.8098-1.3081-9.1058-1.3081-11.769 0-5.5489-3.668-18.56-7.3878-26.205-6.0049-12.342-25.029-32.866-42.269-45.603-6.0688-4.4833-22.606-13.226-30.309-16.023-7.3755-2.6782-28.919-5.2606-38.429-4.6065-19.939 1.3715-32.382 4.9016-52.626 14.93-20.251 10.032-32.372 17.204-39.691 23.484-2.5682 2.2037-7.9572 6.2253-11.975 8.9367-16.854 11.372-59.477 59.505-60.685 68.529-0.21745 1.6238 3.2068 9.968 8.4489 20.589 10.842 21.967 15.251 29.607 26.929 46.672 3.2505 4.75 6.2166 9.4032 6.5913 10.34 0.37476 0.93716 2.2724 3.8052 4.217 6.3735 11.232 14.835 14.336 18.678 15.084 18.678 0.4575 0 1.4392-3.4146 2.1816-7.588 3.2255-18.133 6.5551-27.092 19.089-51.365 1.1604-2.2472 2.4781-5.299 2.9282-6.7817 0.45007-1.4828 3.9989-7.524 7.8862-13.425 16.836-25.557 45.387-51.668 71.529-65.415 6.4456-3.3895 7.8969-3.6833 18.194-3.6833 10.415 0 11.524 0.23171 16.016 3.3443 2.6542 1.8394 6.4765 5.9166 8.494 9.0605 4.8166 7.5061 5.5099 17.503 2.0946 30.205-3.2206 11.977-16.692 34.535-23.831 39.903-2.8328 2.1305-5.4731 4.8292-5.8673 5.997-0.39417 1.1679-9.9007 11.412-21.126 22.764-20.6 20.833-24.972 25.769-26.511 29.927-0.46452 1.2549-0.81349 23.189-0.77552 48.742 0.0595 40.093 0.67541 56.834 2.9327 79.723 0.25328 2.5682 0.78671 8.3468 1.1854 12.841 1.2231 13.788 5.2087 34.438 6.6467 34.438 0.58621 0 2.4844-0.72837 4.2182-1.6186z"/>
  <metadata>
    <rdf:RDF>
      <cc:Work>
        <dc:format>image/svg+xml</dc:format>
        <dc:type rdf:resource="http://purl.org/dc/dcmitype/StillImage"/>
        <cc:license rdf:resource="http://creativecommons.org/licenses/publicdomain/"/>
        <dc:publisher>
          <cc:Agent rdf:about="http://openclipart.org/">
            <dc:title>Openclipart</dc:title>
          </cc:Agent>
        </dc:publisher>
        <dc:title>Question Mark</dc:title>
        <dc:date>2010-04-22T06:54:36</dc:date>
        <dc:description>These are some quick sketches and doodles I made in my notebook on a flight. These are mostly shit, but hey, lets see if useful!</dc:description>
        <dc:source>https://openclipart.org/detail/50161/question-mark-by-rejon</dc:source>
        <dc:creator>
          <cc:Agent>
            <dc:title>rejon</dc:title>
          </cc:Agent>
        </dc:creator>
        <dc:subject>
          <rdf:Bag>
            <rdf:li>black</rdf:li>
            <rdf:li>bw</rdf:li>
            <rdf:li>drawings</rdf:li>
            <rdf:li>fast</rdf:li>
            <rdf:li>rapid</rdf:li>
            <rdf:li>rejon</rdf:li>
            <rdf:li>sketch</rdf:li>
            <rdf:li>sketchbook</rdf:li>
            <rdf:li>unchecked</rdf:li>
            <rdf:li>white</rdf:li>
          </rdf:Bag>
        </dc:subject>
      </cc:Work>
      <cc:License rdf:about="http://creativecommons.org/licenses/publicdomain/">
        <cc:permits rdf:resource="http://creativecommons.org/ns#Reproduction"/>
        <cc:permits rdf:resource="http://creativecommons.org/ns#Distribution"/>
        <cc:permits rdf:resource="http://creativecommons.org/ns#DerivativeWorks"/>
      </cc:License>
    </rdf:RDF>
  </metadata>
</svg>
