<?xml version="1.0"?>
<svg xmlns:rdf="http://www.w3.org/1999/02/22-rdf-syntax-ns#" xmlns="http://www.w3.org/2000/svg" xmlns:cc="http://web.resource.org/cc/" xmlns:xlink="http://www.w3.org/1999/xlink" xmlns:dc="http://purl.org/dc/elements/1.1/" xmlns:svg="http://www.w3.org/2000/svg" id="svg2" viewBox="0 0 97.775 134.51" version="1.0">
  <defs id="defs4">
    <linearGradient id="linearGradient2876">
      <stop id="stop2878" stop-color="#ccc" offset="0"/>
      <stop id="stop2880" stop-color="#767676" offset="1"/>
    </linearGradient>
    <linearGradient id="linearGradient2854" y2="461.15" gradientUnits="userSpaceOnUse" x2="95.327" gradientTransform="matrix(.40311 0 0 .40311 -1383.1 -430.21)" y1="303.64" x1="92.652">
      <stop id="stop4110" stop-color="#fff" offset="0"/>
      <stop id="stop4112" stop-color="#fff" stop-opacity="0" offset="1"/>
    </linearGradient>
    <linearGradient id="linearGradient2882" y2="-210.4" xlink:href="#linearGradient2876" gradientUnits="userSpaceOnUse" x2="-1346.8" y1="-211.2" x1="-1349.6"/>
    <linearGradient id="linearGradient2884" y2="-211.76" xlink:href="#linearGradient2876" gradientUnits="userSpaceOnUse" x2="-1300.1" y1="-211.99" x1="-1296.2"/>
  </defs>
  <g id="layer1" transform="translate(1372.8 335.55)">
    <path id="path2184" style="color:#000000" d="m97.663 127.17a45.637 6.8455 0 1 1 -91.274 0 45.637 6.8455 0 1 1 91.274 0z" fill-rule="evenodd" transform="matrix(1.0017 0 0 .71138 -1375.1 -296.79)" stroke="#000" stroke-width="1px"/>
    <path id="path2866" d="m-1350.2-219c-0.9 1.32-2.4 15.59-2.4 15.59h4.8l4.8-14.27-7.2-1.32z" fill-rule="evenodd" stroke="#000" stroke-width="1px" fill="url(#linearGradient2882)"/>
    <path id="path4116" style="color:#000000" stroke-width=".92686" stroke="#000" d="m-1352.2-298.63h57c10.8 0 21.5 5.48 19.5 19.49l-6.6 41.94c-2.7 13.33-12.4 19.69-20.4 19.69h-42c-8 0-18.4-8.66-20.4-19.69l-6.6-41.94c-3.5-15.49 8.7-19.49 19.5-19.49z"/>
    <path id="rect2160" style="color:#000000" d="m-1349.9-295.51h52.4c9.9 0 19.8 5.04 17.9 17.93l-6.8 38.58c-2.4 12.02-10.7 15.14-18 15.14h-38.7c-7.3 0-16.2-5.19-17.9-15.14l-6.9-38.58c-3.2-14.25 8-17.93 18-17.93z" stroke="#000" stroke-width=".85257" fill="#00aad4"/>
    <path id="path3137" d="m-1347.7-292.36h47.9c9.1 0 18 4.6 16.4 16.35l-4 23.11c-25.5-14.07-49.4-10.89-72.5-0.19l-4.1-22.92c-2.9-13 7.3-16.35 16.3-16.35z" style="color:#000000" fill="url(#linearGradient2854)"/>
    <path id="path2868" style="color:#000000" d="m-1295.4-219c0.9 1.32 2.4 15.59 2.4 15.59h-4.8l-4.8-14.27 7.2-1.32z" fill-rule="evenodd" stroke="#000" stroke-width="1px" fill="url(#linearGradient2884)"/>
    <path id="path2870" style="color:#000000" d="m-1337.9-220.21a1.8667 1.8667 0 1 1 -3.7 0 1.8667 1.8667 0 1 1 3.7 0z" fill-rule="evenodd" transform="matrix(.54640 0 0 .54640 -608.71 -100.87)" stroke="#666" stroke-width=".624" fill="#f00"/>
    <path id="path2886" d="m-1307.7-298.05c0.9-2.03 16.5-37.06 16.5-37.06l-14.8 38.09-1.7-1.03z" stroke="#000" stroke-width=".87285px" fill-rule="evenodd"/>
    <path id="path2888" d="m-1310.4-316.09l18.8 8.21" stroke="#000" stroke-width=".87285px" fill="none"/>
    <path id="path2890" d="m-1305.2-323.35l15.6 6.81" stroke="#000" stroke-width=".87285px" fill="none"/>
    <path id="path2892" d="m-1300.7-329.02l12.4 5.41" stroke="#000" stroke-width=".87285px" fill="none"/>
  </g>
  <metadata>
    <rdf:RDF>
      <cc:Work>
        <dc:format>image/svg+xml</dc:format>
        <dc:type rdf:resource="http://purl.org/dc/dcmitype/StillImage"/>
        <cc:license rdf:resource="http://creativecommons.org/licenses/publicdomain/"/>
        <dc:publisher>
          <cc:Agent rdf:about="http://openclipart.org/">
            <dc:title>Openclipart</dc:title>
          </cc:Agent>
        </dc:publisher>
        <dc:title>comic TV</dc:title>
        <dc:date>2007-11-14T12:20:23</dc:date>
        <dc:description>a simple comic TV.</dc:description>
        <dc:source>http://openclipart.org/detail/8366/comic-tv-by-chrisdesign</dc:source>
        <dc:creator>
          <cc:Agent>
            <dc:title>Chrisdesign</dc:title>
          </cc:Agent>
        </dc:creator>
        <dc:subject>
          <rdf:Bag>
            <rdf:li>antenna</rdf:li>
            <rdf:li>clip art</rdf:li>
            <rdf:li>clipart</rdf:li>
            <rdf:li>entertainment</rdf:li>
            <rdf:li>image</rdf:li>
            <rdf:li>media</rdf:li>
            <rdf:li>monitor</rdf:li>
            <rdf:li>png</rdf:li>
            <rdf:li>public domain</rdf:li>
            <rdf:li>screen</rdf:li>
            <rdf:li>svg</rdf:li>
            <rdf:li>television</rdf:li>
            <rdf:li>tv set</rdf:li>
          </rdf:Bag>
        </dc:subject>
      </cc:Work>
      <cc:License rdf:about="http://creativecommons.org/licenses/publicdomain/">
        <cc:permits rdf:resource="http://creativecommons.org/ns#Reproduction"/>
        <cc:permits rdf:resource="http://creativecommons.org/ns#Distribution"/>
        <cc:permits rdf:resource="http://creativecommons.org/ns#DerivativeWorks"/>
      </cc:License>
    </rdf:RDF>
  </metadata>
</svg>
