<?xml version="1.0"?>
<svg xmlns:rdf="http://www.w3.org/1999/02/22-rdf-syntax-ns#" xmlns="http://www.w3.org/2000/svg" xmlns:cc="http://creativecommons.org/ns#" xmlns:dc="http://purl.org/dc/elements/1.1/" xmlns:svg="http://www.w3.org/2000/svg" id="svg2" viewBox="0 0 300 345.94" version="1.0">
  <g id="layer1" transform="translate(-2.7812 37.284)">
    <g id="g3218" transform="matrix(1.5171 0 0 1.5171 -1.4381 -159.6)">
      <path id="path3209" stroke-linejoin="round" d="m5.2812 136.12l56.969 71.91-4.406 93.81 107.6 4.28v0.04l0.06-0.04 0.69 0.04 0.03-0.38 20.62-9.94 11.19-94.72-24.06-5.46-70.75 7.25-45.001-62.75-52.938-4.04z" stroke="#000" stroke-linecap="round" stroke-width="5" fill="#c4a000"/>
      <path id="path2603" fill-rule="evenodd" fill="#333" d="m114.03 156.06l-0.94 2.32c3.62 1.48 8.38 1.95 12.22 3.03 1.92 0.53 3.6 1.2 4.72 2.09s1.75 1.91 1.85 3.53c0.09 1.62-0.41 2.58-1.38 3.41s-2.52 1.45-4.38 1.84c-0.98 0.21-2.12 0.22-3.21 0.31-2.63-1.27-5.28-2.35-7.07-3.03-3.05-1.15-5.79-0.43-6.75 1.6-0.47 1.01-0.12 2.43 0.85 3.18 0.96 0.75 2.33 1.06 4.22 1.07 2.3 0.01 5.26-0.01 8.25-0.22 0.96 0.48 1.98 0.91 2.81 1.43 1.57 1 2.75 2.07 3.22 2.91 0.23 0.42 0.31 0.74 0.28 1.03-0.03 0.3-0.18 0.64-0.6 1.1-0.82 0.88-2.53 1.68-4.65 2.15-0.15 0.04-0.35 0-0.5 0.03-2.12-1.58-4.61-2.88-7.03-3.75-2.08-0.74-4.05-1.16-5.75-1.09-0.85 0.03-1.64 0.2-2.35 0.62-0.7 0.43-1.27 1.19-1.4 2.07-0.15 0.95 0.29 1.9 0.9 2.53 0.62 0.63 1.4 1.08 2.32 1.44 1.83 0.71 4.18 1.1 6.72 1.22 1.94 0.09 3.94-0.07 5.87-0.35 0.97 0.8 1.8 1.63 2.31 2.44 0.73 1.16 0.63 1.68 0.1 2.41-0.54 0.72-1.79 1.54-3.41 2.18-0.29 0.12-0.66 0.18-0.97 0.28-3.04-0.74-6.45-1.01-9.12-1.4-1.67-0.24-2.97-0.17-4 0.22-1.04 0.39-1.92 1.28-1.91 2.4 0.01 1.13 0.8 1.95 1.78 2.44s2.27 0.72 3.85 0.66c2.5-0.1 6.17-0.71 9.5-1.75 0.09 0.02 0.22 0.03 0.31 0.06 1.39 0.43 2.49 1 3.12 1.72 0.63 0.71 0.91 1.54 0.72 3-0.17 1.28-0.87 2.1-2.28 2.78s-3.46 1.07-5.75 1.15c-4.58 0.18-10.11-0.82-13.56-2.12l-0.91 2.34c3.86 1.46 9.55 2.51 14.56 2.32 2.51-0.1 4.85-0.52 6.75-1.44 1.91-0.93 3.44-2.54 3.72-4.72 0.27-2.01-0.28-3.74-1.37-4.97-0.52-0.59-1.13-1.08-1.81-1.47 1.11-0.59 2.12-1.28 2.81-2.22 1.02-1.4 1.15-3.43 0.03-5.22-0.39-0.61-0.91-1.18-1.44-1.74 1.86-0.54 3.54-1.27 4.69-2.5 0.7-0.76 1.15-1.63 1.25-2.54 0.1-0.9-0.14-1.77-0.56-2.53-0.8-1.43-2.2-2.57-3.82-3.62 2.02-0.44 3.89-1.13 5.32-2.35 1.47-1.26 2.38-3.18 2.25-5.46-0.14-2.29-1.26-4.11-2.82-5.35-1.55-1.24-3.51-1.98-5.59-2.56-4.16-1.17-8.94-1.67-11.97-2.91zm-1.65 15.63c0.61-0.16 1.48-0.2 2.59 0.22 0.64 0.24 1.61 0.64 2.44 0.97-1.11-0.01-2.3 0.03-3.25 0.03-1.56-0.01-2.42-0.36-2.69-0.57-0.27-0.2-0.14-0.03-0.09-0.12 0.04-0.09 0.38-0.37 1-0.53zm-2.1 9.81c1.16-0.05 2.94 0.3 4.81 0.97 1.15 0.41 2.27 1.1 3.41 1.72-0.68 0.01-1.33 0.18-2 0.15-2.33-0.1-4.52-0.5-5.94-1.06-0.71-0.28-1.2-0.57-1.44-0.81-0.23-0.24-0.2-0.29-0.18-0.41 0.03-0.19 0.01-0.17 0.18-0.28 0.18-0.11 0.58-0.26 1.16-0.28zm0.53 13.44c0.96 0.14 2.01 0.22 3.03 0.34-1.09 0.14-2.27 0.34-3.09 0.38-1.25 0.05-2.1-0.18-2.56-0.41-0.47-0.23-0.41-0.39-0.41-0.22 0 0.18-0.16 0.17 0.28 0 0.45-0.17 1.38-0.29 2.75-0.09z"/>
      <path id="path3266" stroke-linejoin="round" d="m123.06 81.625c-0.2 0.004-0.41 0.032-0.62 0.063-5.83 1.35-4.53 9.056-1.25 12.343 2.85 3.457 5.67 7.039 8.62 10.439-14.3 4.29-24.75 17.56-24.75 33.25 0 19.15 15.57 34.69 34.72 34.69 19.16 0 34.69-15.54 34.69-34.69 0-18.06-13.81-32.92-31.44-34.56 0.34-0.89 0.65-1.74 0.91-2.44 2.64-4.184 1-14.48-4.1-8.782-1.32 1.73-1.15-5.551-2.34-7.157-1.52-3.962-6.13-2.888-5.16 5.313 0.6 4.629-0.78-0.683-2.37-3.375-1.62-2.258-3.87-5.151-6.91-5.094z" stroke="#2e3436" stroke-linecap="round" stroke-width="2" fill="#888a85"/>
      <path id="rect2460" stroke-linejoin="round" d="m5.28 136.13l52.953 4.04 46.737 65.16-40.952 4.96-58.738-74.16z" stroke="#d3d7cf" stroke-linecap="round" stroke-width="2" fill="#c4a000"/>
      <path id="path3277" stroke-linejoin="round" d="m173.97 195.66l-111.69 11.46-4.436 94.72 107.6 4.28v0.04l0.06-0.04 0.69 0.04 0.03-0.38 7.75-110.12z" stroke="#d3d7cf" stroke-linecap="round" stroke-width="2" fill="#edd400"/>
      <path id="path3407" fill="#555753" d="m123.12 83.625c-0.71 0.002-1.39 0.335-2.03 1.094-4.07 4.854 8.9 15.841 12.16 20.621 0.21 0.32 0.45 0.6 0.66 0.88-14.89 2.76-26.16 15.82-26.16 31.5 0 17.68 14.35 32.03 32.03 32.03 17.69 0 32.03-14.35 32.03-32.03 0-17.69-14.34-32.06-32.03-32.06h-0.09c1.05-1.9 2.2-4.88 3.59-9.254 0.53-2.678-0.89-4.677-1.84-3.281-1.57 2.589-2.45 4.734-3.28 7.625 0.18-1.443 0.28-2.915 0.15-4.375-0.31-3.285-1.05-6.525-2.19-9.625-0.36-0.647-0.5-2.097-1.43-1.938-0.59 0.913-0.62 2.095-0.63 3.157 0.25 3.703 0.06 7.426-0.18 11.125-0.19-0.529-0.38-1.068-0.57-1.594-1.68-4.251-6.33-13.884-10.19-13.875z"/>
      <path id="path3409" stroke-linejoin="round" d="m491.94 248.79a101.52 101.52 0 1 1 -203.04 0 101.52 101.52 0 1 1 203.04 0z" transform="matrix(.15993 0 0 .15993 57.549 92.333)" stroke="#2e3436" stroke-linecap="round" stroke-width="8" fill="#babdb6"/>
      <path id="path3411" stroke-linejoin="round" d="m491.94 248.79a101.52 101.52 0 1 1 -203.04 0 101.52 101.52 0 1 1 203.04 0z" transform="matrix(.22657 0 0 .22657 69.078 71.696)" stroke="#2e3436" stroke-linecap="round" stroke-width="8" fill="#babdb6"/>
      <path id="path3413" fill="#fff" d="m119.67 118.21c-8.66-0.15-15.78 9.38-13.12 17.67 2.04 7.84 11.72 12.61 19.09 8.99 6.53-2.88 10.23-11.19 7.3-17.87-2.09-5.23-7.57-9.06-13.27-8.79z"/>
      <path id="path3423" fill="#fff" d="m156.87 107.77c-11.68 0.01-21.66 11.88-19.43 23.45 1.44 9.79 10.81 17.81 20.79 17.17 9.73-0.22 18.78-8.36 19.54-18.19 1.04-9.7-5.53-19.61-15.13-21.79-1.88-0.52-3.82-0.7-5.77-0.64z"/>
      <path id="path2408" transform="matrix(1.0789 0 0 1.0789 -5.5824 -5.6391)" fill="#729fcf" d="m158.04 125.17a6.7175 6.7175 0 1 1 -13.44 0 6.7175 6.7175 0 1 1 13.44 0z"/>
      <path id="path3365" fill-rule="evenodd" fill="#fff" d="m118.77 152.72l38.44-0.39s1.08 8.23-3.93 10.31c-5.55 2.32-34.71-9.53-34.51-9.92z"/>
      <path id="path3367" stroke="#b3b3b3" stroke-width="1px" fill="none" d="m119.77 153.11s34.67 10.05 37.39 2.87"/>
      <path id="path3471" fill="#2e3436" d="m157.51 124.62c-3.93-0.02-6.36 5.69-3.36 8.36 2.36 2.5 7.36 1.62 8.23-1.85 1.04-3.14-1.45-6.8-4.87-6.51z"/>
      <path id="path3260" fill="#d3d7cf" d="m156.58 126.73c-1.38-0.01-2.23 2-1.18 2.94 0.83 0.87 2.59 0.57 2.89-0.65 0.37-1.11-0.51-2.39-1.71-2.29z"/>
      <path id="path3284" stroke-linejoin="round" d="m198.02 201.12l-24.05-5.48-8.52 110.51 21.41-10.31 11.16-94.72z" stroke="#babdb6" stroke-linecap="round" stroke-width="2" fill="#c4a000"/>
      <path id="path2411" transform="matrix(.75 0 0 .75 6.0988 38.982)" fill="#729fcf" d="m158.04 125.17a6.7175 6.7175 0 1 1 -13.44 0 6.7175 6.7175 0 1 1 13.44 0z"/>
      <path id="path2413" fill="#2e3436" d="m119.47 129.53c-2.73-0.02-4.42 3.95-2.34 5.81 1.64 1.74 5.12 1.13 5.73-1.29 0.72-2.18-1.02-4.72-3.39-4.52z"/>
      <path id="path2415" fill="#d3d7cf" d="m118.82 130.99c-0.95 0-1.55 1.39-0.82 2.05 0.58 0.61 1.8 0.39 2.01-0.46 0.26-0.76-0.35-1.65-1.19-1.59z"/>
      <path id="path3216" stroke="#333" stroke-width="1px" fill="none" d="m118.77 152.72l38.44-0.39s1.08 8.23-3.93 10.31c-5.55 2.32-34.71-9.53-34.51-9.92z"/>
    </g>
  </g>
  <metadata>
    <rdf:RDF>
      <cc:Work>
        <dc:format>image/svg+xml</dc:format>
        <dc:type rdf:resource="http://purl.org/dc/dcmitype/StillImage"/>
        <cc:license rdf:resource="http://creativecommons.org/licenses/publicdomain/"/>
        <dc:publisher>
          <cc:Agent rdf:about="http://openclipart.org/">
            <dc:title>Openclipart</dc:title>
          </cc:Agent>
        </dc:publisher>
        <dc:title>Jack-in-the-box</dc:title>
        <dc:date>2008-04-03T09:53:19</dc:date>
        <dc:description>cartoon, cartoon, clip art, clipart, colour, colour, image, jack, jack, media, png, public domain, svg, toy, toy, </dc:description>
        <dc:source>http://openclipart.org/detail/16117/jack-in-the-box-by-liakad-16117</dc:source>
        <dc:creator>
          <cc:Agent>
            <dc:title>liakad</dc:title>
          </cc:Agent>
        </dc:creator>
        <dc:subject>
          <rdf:Bag>
            <rdf:li>cartoon</rdf:li>
            <rdf:li>clip art</rdf:li>
            <rdf:li>clipart</rdf:li>
            <rdf:li>colour</rdf:li>
            <rdf:li>image</rdf:li>
            <rdf:li>jack</rdf:li>
            <rdf:li>media</rdf:li>
            <rdf:li>png</rdf:li>
            <rdf:li>public domain</rdf:li>
            <rdf:li>svg</rdf:li>
            <rdf:li>toy</rdf:li>
          </rdf:Bag>
        </dc:subject>
      </cc:Work>
      <cc:License rdf:about="http://creativecommons.org/licenses/publicdomain/">
        <cc:permits rdf:resource="http://creativecommons.org/ns#Reproduction"/>
        <cc:permits rdf:resource="http://creativecommons.org/ns#Distribution"/>
        <cc:permits rdf:resource="http://creativecommons.org/ns#DerivativeWorks"/>
      </cc:License>
    </rdf:RDF>
  </metadata>
</svg>
