<?xml version="1.0"?>
<svg xmlns:rdf="http://www.w3.org/1999/02/22-rdf-syntax-ns#" xmlns="http://www.w3.org/2000/svg" xmlns:cc="http://creativecommons.org/ns#" xmlns:dc="http://purl.org/dc/elements/1.1/" xmlns:svg="http://www.w3.org/2000/svg" id="svg4215" viewBox="0 0 409 409" version="1.1">
  <defs id="defs4217">
    <clipPath id="clipPath5315" clipPathUnits="userSpaceOnUse">
      <path id="path5317" d="m83.188 154.14c-4.505 0-8.125 3.62-8.125 8.125s3.62 8.1562 8.125 8.1562h95.469c4.505 0 8.125-3.6513 8.125-8.1562 0-4.505-3.62-8.125-8.125-8.125h-95.469zm0 21.938c-4.505 0-8.125 3.62-8.125 8.125s3.62 8.125 8.125 8.125h95.469c4.505 0 8.125-3.62 8.125-8.125s-3.62-8.125-8.125-8.125h-95.469zm0 21.906c-4.505 0-8.125 3.62-8.125 8.125s3.62 8.125 8.125 8.125h95.469c4.505 0 8.125-3.62 8.125-8.125s-3.62-8.125-8.125-8.125h-95.469zm0 21.906c-4.505 0-8.125 3.6513-8.125 8.1562 0 4.505 3.62 8.125 8.125 8.125h95.469c4.505 0 8.125-3.62 8.125-8.125s-3.62-8.1562-8.125-8.1562h-95.469zm0 21.938c-4.505 0-8.125 3.62-8.125 8.125s3.62 8.125 8.125 8.125h95.469c4.505 0 8.125-3.62 8.125-8.125s-3.62-8.125-8.125-8.125h-95.469zm0 21.906c-4.505 0-8.125 3.6513-8.125 8.1562 0 4.505 3.62 8.125 8.125 8.125h95.469c4.505 0 8.125-3.62 8.125-8.125s-3.62-8.1562-8.125-8.1562h-95.469zm0 21.938c-4.505 0-8.125 3.62-8.125 8.125s3.62 8.125 8.125 8.125h95.469c4.505 0 8.125-3.62 8.125-8.125s-3.62-8.125-8.125-8.125h-95.469z" fill="#565248"/>
    </clipPath>
  </defs>
  <g id="layer1" transform="translate(-158 -30.362)">
    <rect id="rect5371" rx="10" ry="10" height="20" width="46.5" y="363.86" x="446" fill="#534b37"/>
    <rect id="rect5369" rx="10" ry="10" height="20" width="46.5" y="363.86" x="229" fill="#534b37"/>
    <path id="rect6242" fill="#d9bb7a" d="m245.35 94.53h227.33c15.742 0 51.492 40.168 49.465 55.779l-21.049 162.08c-2.0274 15.611-12.673 28.416-28.416 28.416h-227.33c-15.742 0-26.909-12.746-28.416-28.416l-15.77-164.19c-1.5067-15.67 28.46-53.674 44.202-53.674z"/>
    <rect id="rect6240" rx="28.416" ry="28.416" height="247.32" width="324.15" y="126.1" x="199.05" fill="#816647"/>
    <path id="path3839" d="m384.91 304.22c-11.999-0.12323-18.908 16.511-10.344 24.938 7.3394 8.9681 24.053 4.4961 25.688-7.0938 2.0533-9.0627-6.0349-18.604-15.344-17.844z" fill="#53472b"/>
    <path id="rect3872" d="m238.97 148.39c-15.349 0.20434-27.729 15.132-26 30.219 0.19826 45.338-0.38956 90.718 0.28125 136.03 1.8673 14.605 16.617 24.916 30.969 23.094 29.938-0.26004 59.944 0.50056 89.844-0.34375 14.503-1.9431 24.642-16.661 22.844-30.906-0.19839-45.005 0.38975-90.051-0.28125-135.03-1.8673-14.605-16.617-24.916-30.969-23.094-28.896 0.0214-57.793-0.0425-86.688 0.0312zm-1.7812 28.812c32.014 0.15336 64.235-0.30174 96.125 0.21875 1.8604 2.8724-4.2341 2.113-5.75 1.9375-30.296-0.17446-60.95 0.34376-91.031-0.25-0.72015-0.45201-0.41146-1.9559 0.65625-1.9062zm0 21.938c32.014 0.15336 64.235-0.30174 96.125 0.21875 1.8442 2.9242-4.2358 1.9954-5.75 1.9062-30.316-0.15318-60.919 0.3015-91.062-0.21875-0.62772-0.46066-0.42582-1.9369 0.6875-1.9062zm0 21.906c32.031 0.17587 64.296-0.34566 96.188 0.25 1.6632 3.3566-5.1592 1.4984-6.8125 1.875-29.98-0.19901-60.417 0.39043-90.125-0.28125-0.5826-0.54826-0.29951-1.8535 0.75-1.8438zm0 21.906c32.017 0.15296 64.218-0.30121 96.125 0.21875 1.8579 2.9806-4.1887 1.9885-5.75 1.9375-30.326-0.17577-61.018 0.34552-91.125-0.25-0.54473-0.57735-0.34588-1.8671 0.75-1.9062zm0 21.938c32.014 0.15336 64.235-0.30174 96.125 0.21875 1.8442 2.9242-4.2358 1.9954-5.75 1.9062-30.316-0.15318-60.919 0.3015-91.062-0.21875-0.62772-0.46066-0.42582-1.9369 0.6875-1.9062zm0 21.906c32.007 0.17468 64.275-0.34405 96.125 0.25 1.8399 2.9724-4.2549 1.926-5.75 1.9062-30.316-0.15318-60.919 0.3015-91.062-0.21875-0.618-0.46144-0.44534-1.9255 0.6875-1.9375zm0 21.938c32.031 0.17587 64.296-0.34566 96.188 0.25 1.6632 3.3566-5.1592 1.4984-6.8125 1.875-29.98-0.19901-60.417 0.39043-90.125-0.28125-0.5826-0.54826-0.29951-1.8535 0.75-1.8438z" fill="#6e6449"/>
    <rect id="rect2999" rx="20.193" ry="20.193" height="175.25" width="129.81" y="155.43" x="220.02" fill="#d9bb7a"/>
    <path id="path5367" transform="matrix(1.1833 0 0 1.1769 100.77 -20.762)" fill="#6e6449" d="m346.17 213.56a61.301 61.301 0 1 1 -122.6 0 61.301 61.301 0 1 1 122.6 0z"/>
    <path id="path3812" transform="matrix(1.1383 0 0 1.1322 113.33 -11.462)" fill="#e3e1af" d="m346.17 213.56a61.301 61.301 0 1 1 -122.6 0 61.301 61.301 0 1 1 122.6 0z"/>
    <path id="path3001" transform="matrix(1.1118 0 0 1.1118 120.75 -7.3574)" fill="#f6f4c6" d="m346.17 213.56a61.301 61.301 0 1 1 -122.6 0 61.301 61.301 0 1 1 122.6 0z"/>
    <path id="path3771" transform="translate(156.2 17.953)" fill="#565248" d="m290.64 212.12a9.3754 9.3754 0 1 1 -18.751 0 9.3754 9.3754 0 1 1 18.751 0z"/>
    <path id="path3773" fill="#565248" d="m452.81 172.13c-2.8182 1.6852-6.0815 4.2395-6.8948 7.0171-0.6353 2.371 0.26382 4.8234 2.078 6.2508-4.7601 7.6395-8.8315 13.837-11.476 23.389-1.1324 4.2263 2.2828 6.0519 1.5101 9.8192l-4.2774 8.2361 4.1052 1.1 0.0905 0.0242 4.1052 1.1 0.4137-9.2713c1.2144-3.6489 5.0849-3.5223 6.2173-7.7486 2.486-9.5946 2.0589-16.998 1.7562-25.994 2.2848-0.32912 4.2897-2.0034 4.925-4.3744 0.68446-2.8122-0.86451-6.6558-2.4626-9.5244 0 0-0.0199-0.0426-0.04-0.0472-0.0181-0.004-0.0507 0.0229-0.0507 0.0229z"/>
    <path id="rect3786" fill="#565248" d="m432.06 168.4v3h1.6875v6.9062h-1.6875v3h10.5v-3h-1.6875v-6.9062h1.6875v-3h-10.5zm4.6875 3h1.125v6.9062h-1.125v-6.9062z"/>
    <path id="path3796" fill="#565248" d="m477.23 182.76-2.1213 2.1213 1.1932 1.1932-4.8835 4.8835-1.1932-1.1932-2.1213 2.1213 7.4246 7.4246 2.1213-2.1213-1.1932-1.1932 4.8835-4.8834 1.1932 1.1932 2.1213-2.1213-7.4246-7.4246zm1.1932 5.4359 0.7955 0.79549-4.8835 4.8835-0.7955-0.79549 4.8835-4.8835z"/>
    <path id="path3798" fill="#565248" d="m499.02 224.86h-3v1.6875h-6.9062l0.00001-1.6875h-3v10.5h3v-1.6875l6.9062 0.00001v1.6875h3v-10.5zm-3 4.6875 0.00001 1.125h-6.9062l-0.00001-1.125h6.9062z"/>
    <path id="path3800" fill="#565248" d="m484.66 270.02-2.1213-2.1213-1.1932 1.1932-4.8835-4.8834 1.1933-1.1932-2.1213-2.1213-7.4246 7.4246 2.1213 2.1213 1.1932-1.1932 4.8834 4.8835-1.1932 1.1932 2.1213 2.1213 7.4246-7.4246zm-5.4359 1.1932-0.79548 0.79549-4.8835-4.8835 0.79548-0.79549 4.8835 4.8835z"/>
    <path id="path3802" fill="#565248" d="m442.56 291.81v-3h-1.6875l-0.00001-6.9062 1.6875 0.00002v-3h-10.5v3l1.6875-0.00001-0.00002 6.9062h-1.6875v3h10.5zm-4.6875-3-1.125 0.00001v-6.9063l1.125-0.00001v6.9063z"/>
    <path id="path3804" fill="#565248" d="m397.4 277.45 2.1213-2.1213-1.1932-1.1932 4.8834-4.8835 1.1932 1.1933 2.1213-2.1213-7.4246-7.4246-2.1213 2.1213 1.1933 1.1932-4.8835 4.8834-1.1932-1.1932-2.1213 2.1213 7.4246 7.4246zm-1.1933-5.4359-0.79549-0.79547 4.8835-4.8835 0.79549 0.79547-4.8835 4.8835z"/>
    <path id="path3806" fill="#565248" d="m375.61 235.36h3l0.00001-1.6875h6.9062l-0.00002 1.6875h3v-10.5h-3v1.6875l-6.9062-0.00003v-1.6875h-3v10.5zm3-4.6875-0.00002-1.125 6.9063 0.00001 0.00002 1.125-6.9063-0.00001z"/>
    <path id="path3808" fill="#565248" d="m389.97 190.19 2.1213 2.1213 1.1933-1.1932 4.8834 4.8835-1.1932 1.1932 2.1213 2.1213 7.4246-7.4246-2.1213-2.1213-1.1933 1.1932-4.8834-4.8835 1.1932-1.1932-2.1213-2.1213-7.4246 7.4246zm5.4359-1.1932 0.79547-0.7955 4.8834 4.8835-0.79546 0.7955-4.8835-4.8835z"/>
    <path id="path3810" transform="matrix(.52002 0 0 .52002 291.2 119.51)" fill="#34332c" d="m290.64 212.12a9.3754 9.3754 0 1 1 -18.751 0 9.3754 9.3754 0 1 1 18.751 0z"/>
    <path id="path3841" d="m488.84 304.22c-12.001-0.13499-18.874 16.523-10.344 24.938 7.2506 8.8202 23.608 4.6646 25.625-6.6562 2.327-9.1859-5.7635-19.043-15.281-18.281z" fill="#53472b"/>
    <path id="path3814" transform="matrix(1.1664 0 0 1.1664 119.24 -20.929)" fill="#c7b362" d="m239 290.88a10.625 10.625 0 1 1 -21.25 0 10.625 10.625 0 1 1 21.25 0z"/>
    <path id="path3816" transform="matrix(1.1664 0 0 1.1664 223.18 -20.929)" fill="#c7b362" d="m239 290.88a10.625 10.625 0 1 1 -21.25 0 10.625 10.625 0 1 1 21.25 0z"/>
    <path id="rect3855" d="m237.19 170.14c-4.505 0-8.125 3.62-8.125 8.125s3.62 8.1562 8.125 8.1562h95.469c4.505 0 8.125-3.6513 8.125-8.1562 0-4.505-3.62-8.125-8.125-8.125h-95.469zm0 21.938c-4.505 0-8.125 3.62-8.125 8.125s3.62 8.125 8.125 8.125h95.469c4.505 0 8.125-3.62 8.125-8.125s-3.62-8.125-8.125-8.125h-95.469zm0 21.906c-4.505 0-8.125 3.62-8.125 8.125s3.62 8.125 8.125 8.125h95.469c4.505 0 8.125-3.62 8.125-8.125s-3.62-8.125-8.125-8.125h-95.469zm0 21.906c-4.505 0-8.125 3.6513-8.125 8.1562 0 4.505 3.62 8.125 8.125 8.125h95.469c4.505 0 8.125-3.62 8.125-8.125s-3.62-8.1562-8.125-8.1562h-95.469zm0 21.938c-4.505 0-8.125 3.62-8.125 8.125s3.62 8.125 8.125 8.125h95.469c4.505 0 8.125-3.62 8.125-8.125s-3.62-8.125-8.125-8.125h-95.469zm0 21.906c-4.505 0-8.125 3.6513-8.125 8.1562 0 4.505 3.62 8.125 8.125 8.125h95.469c4.505 0 8.125-3.62 8.125-8.125s-3.62-8.1562-8.125-8.1562h-95.469zm0 21.938c-4.505 0-8.125 3.62-8.125 8.125s3.62 8.125 8.125 8.125h95.469c4.505 0 8.125-3.62 8.125-8.125s-3.62-8.125-8.125-8.125h-95.469z" fill="#7a7a7a"/>
    <g id="g4963" clip-path="url(#clipPath5315)" transform="translate(154.5,16)">
      <g id="g4603" transform="translate(0 -.000053577)">
        <g id="g3916" transform="translate(.0000038147 -14)">
          <path id="path3908" transform="matrix(.61538 0 0 .61538 138.58 79.016)" fill="#666" d="m-24.5 142.75c0 5.3848-4.3652 9.75-9.75 9.75s-9.75-4.3652-9.75-9.75 4.3652-9.75 9.75-9.75 9.75 4.3652 9.75 9.75z"/>
          <path id="path3904" transform="matrix(.51064 0 0 .51064 134.99 93.969)" fill="#aaa" d="m-24.5 142.75c0 5.3848-4.3652 9.75-9.75 9.75s-9.75-4.3652-9.75-9.75 4.3652-9.75 9.75-9.75 9.75 4.3652 9.75 9.75z"/>
          <path id="path3906" transform="matrix(.36661 0 0 .36661 130.06 114.53)" fill="#666" d="m-24.5 142.75c0 5.3848-4.3652 9.75-9.75 9.75s-9.75-4.3652-9.75-9.75 4.3652-9.75 9.75-9.75 9.75 4.3652 9.75 9.75z"/>
        </g>
        <g id="g3921" transform="translate(70 -14)">
          <path id="path3923" transform="matrix(.61538 0 0 .61538 138.58 79.016)" fill="#666" d="m-24.5 142.75c0 5.3848-4.3652 9.75-9.75 9.75s-9.75-4.3652-9.75-9.75 4.3652-9.75 9.75-9.75 9.75 4.3652 9.75 9.75z"/>
          <path id="path3925" transform="matrix(.51064 0 0 .51064 134.99 93.969)" fill="#aaa" d="m-24.5 142.75c0 5.3848-4.3652 9.75-9.75 9.75s-9.75-4.3652-9.75-9.75 4.3652-9.75 9.75-9.75 9.75 4.3652 9.75 9.75z"/>
          <path id="path3927" transform="matrix(.36661 0 0 .36661 130.06 114.53)" fill="#666" d="m-24.5 142.75c0 5.3848-4.3652 9.75-9.75 9.75s-9.75-4.3652-9.75-9.75 4.3652-9.75 9.75-9.75 9.75 4.3652 9.75 9.75z"/>
        </g>
        <g id="g3929" transform="translate(52.5 -14)">
          <path id="path3931" transform="matrix(.61538 0 0 .61538 138.58 79.016)" fill="#666" d="m-24.5 142.75c0 5.3848-4.3652 9.75-9.75 9.75s-9.75-4.3652-9.75-9.75 4.3652-9.75 9.75-9.75 9.75 4.3652 9.75 9.75z"/>
          <path id="path3933" transform="matrix(.51064 0 0 .51064 134.99 93.969)" fill="#aaa" d="m-24.5 142.75c0 5.3848-4.3652 9.75-9.75 9.75s-9.75-4.3652-9.75-9.75 4.3652-9.75 9.75-9.75 9.75 4.3652 9.75 9.75z"/>
          <path id="path3935" transform="matrix(.36661 0 0 .36661 130.06 114.53)" fill="#666" d="m-24.5 142.75c0 5.3848-4.3652 9.75-9.75 9.75s-9.75-4.3652-9.75-9.75 4.3652-9.75 9.75-9.75 9.75 4.3652 9.75 9.75z"/>
        </g>
        <g id="g3937" transform="translate(35 -14)">
          <path id="path3939" transform="matrix(.61538 0 0 .61538 138.58 79.016)" fill="#666" d="m-24.5 142.75c0 5.3848-4.3652 9.75-9.75 9.75s-9.75-4.3652-9.75-9.75 4.3652-9.75 9.75-9.75 9.75 4.3652 9.75 9.75z"/>
          <path id="path3941" transform="matrix(.51064 0 0 .51064 134.99 93.969)" fill="#aaa" d="m-24.5 142.75c0 5.3848-4.3652 9.75-9.75 9.75s-9.75-4.3652-9.75-9.75 4.3652-9.75 9.75-9.75 9.75 4.3652 9.75 9.75z"/>
          <path id="path3943" transform="matrix(.36661 0 0 .36661 130.06 114.53)" fill="#666" d="m-24.5 142.75c0 5.3848-4.3652 9.75-9.75 9.75s-9.75-4.3652-9.75-9.75 4.3652-9.75 9.75-9.75 9.75 4.3652 9.75 9.75z"/>
        </g>
        <g id="g3945" transform="translate(17.5 -14)">
          <path id="path3947" transform="matrix(.61538 0 0 .61538 138.58 79.016)" fill="#666" d="m-24.5 142.75c0 5.3848-4.3652 9.75-9.75 9.75s-9.75-4.3652-9.75-9.75 4.3652-9.75 9.75-9.75 9.75 4.3652 9.75 9.75z"/>
          <path id="path3949" transform="matrix(.51064 0 0 .51064 134.99 93.969)" fill="#aaa" d="m-24.5 142.75c0 5.3848-4.3652 9.75-9.75 9.75s-9.75-4.3652-9.75-9.75 4.3652-9.75 9.75-9.75 9.75 4.3652 9.75 9.75z"/>
          <path id="path3951" transform="matrix(.36661 0 0 .36661 130.06 114.53)" fill="#666" d="m-24.5 142.75c0 5.3848-4.3652 9.75-9.75 9.75s-9.75-4.3652-9.75-9.75 4.3652-9.75 9.75-9.75 9.75 4.3652 9.75 9.75z"/>
        </g>
        <g id="g3971" transform="translate(-35,-14)">
          <path id="path3973" transform="matrix(.61538 0 0 .61538 138.58 79.016)" fill="#666" d="m-24.5 142.75c0 5.3848-4.3652 9.75-9.75 9.75s-9.75-4.3652-9.75-9.75 4.3652-9.75 9.75-9.75 9.75 4.3652 9.75 9.75z"/>
          <path id="path3975" transform="matrix(.51064 0 0 .51064 134.99 93.969)" fill="#aaa" d="m-24.5 142.75c0 5.3848-4.3652 9.75-9.75 9.75s-9.75-4.3652-9.75-9.75 4.3652-9.75 9.75-9.75 9.75 4.3652 9.75 9.75z"/>
          <path id="path3977" transform="matrix(.36661 0 0 .36661 130.06 114.53)" fill="#666" d="m-24.5 142.75c0 5.3848-4.3652 9.75-9.75 9.75s-9.75-4.3652-9.75-9.75 4.3652-9.75 9.75-9.75 9.75 4.3652 9.75 9.75z"/>
        </g>
        <g id="g3979" transform="translate(-17.5 -14)">
          <path id="path3981" transform="matrix(.61538 0 0 .61538 138.58 79.016)" fill="#666" d="m-24.5 142.75c0 5.3848-4.3652 9.75-9.75 9.75s-9.75-4.3652-9.75-9.75 4.3652-9.75 9.75-9.75 9.75 4.3652 9.75 9.75z"/>
          <path id="path3983" transform="matrix(.51064 0 0 .51064 134.99 93.969)" fill="#aaa" d="m-24.5 142.75c0 5.3848-4.3652 9.75-9.75 9.75s-9.75-4.3652-9.75-9.75 4.3652-9.75 9.75-9.75 9.75 4.3652 9.75 9.75z"/>
          <path id="path3985" transform="matrix(.36661 0 0 .36661 130.06 114.53)" fill="#666" d="m-24.5 142.75c0 5.3848-4.3652 9.75-9.75 9.75s-9.75-4.3652-9.75-9.75 4.3652-9.75 9.75-9.75 9.75 4.3652 9.75 9.75z"/>
        </g>
      </g>
      <g id="g4633" transform="translate(0 -.31823)">
        <g id="g3987" transform="translate(-10 1)">
          <path id="path3989" transform="matrix(.61538 0 0 .61538 138.58 79.016)" fill="#666" d="m-24.5 142.75c0 5.3848-4.3652 9.75-9.75 9.75s-9.75-4.3652-9.75-9.75 4.3652-9.75 9.75-9.75 9.75 4.3652 9.75 9.75z"/>
          <path id="path3991" transform="matrix(.51064 0 0 .51064 134.99 93.969)" fill="#aaa" d="m-24.5 142.75c0 5.3848-4.3652 9.75-9.75 9.75s-9.75-4.3652-9.75-9.75 4.3652-9.75 9.75-9.75 9.75 4.3652 9.75 9.75z"/>
          <path id="path3993" transform="matrix(.36661 0 0 .36661 130.06 114.53)" fill="#666" d="m-24.5 142.75c0 5.3848-4.3652 9.75-9.75 9.75s-9.75-4.3652-9.75-9.75 4.3652-9.75 9.75-9.75 9.75 4.3652 9.75 9.75z"/>
        </g>
        <g id="g3995" transform="translate(60 1)">
          <path id="path3997" transform="matrix(.61538 0 0 .61538 138.58 79.016)" fill="#666" d="m-24.5 142.75c0 5.3848-4.3652 9.75-9.75 9.75s-9.75-4.3652-9.75-9.75 4.3652-9.75 9.75-9.75 9.75 4.3652 9.75 9.75z"/>
          <path id="path3999" transform="matrix(.51064 0 0 .51064 134.99 93.969)" fill="#aaa" d="m-24.5 142.75c0 5.3848-4.3652 9.75-9.75 9.75s-9.75-4.3652-9.75-9.75 4.3652-9.75 9.75-9.75 9.75 4.3652 9.75 9.75z"/>
          <path id="path4001" transform="matrix(.36661 0 0 .36661 130.06 114.53)" fill="#666" d="m-24.5 142.75c0 5.3848-4.3652 9.75-9.75 9.75s-9.75-4.3652-9.75-9.75 4.3652-9.75 9.75-9.75 9.75 4.3652 9.75 9.75z"/>
        </g>
        <g id="g4003" transform="translate(42.5 1)">
          <path id="path4005" transform="matrix(.61538 0 0 .61538 138.58 79.016)" fill="#666" d="m-24.5 142.75c0 5.3848-4.3652 9.75-9.75 9.75s-9.75-4.3652-9.75-9.75 4.3652-9.75 9.75-9.75 9.75 4.3652 9.75 9.75z"/>
          <path id="path4007" transform="matrix(.51064 0 0 .51064 134.99 93.969)" fill="#aaa" d="m-24.5 142.75c0 5.3848-4.3652 9.75-9.75 9.75s-9.75-4.3652-9.75-9.75 4.3652-9.75 9.75-9.75 9.75 4.3652 9.75 9.75z"/>
          <path id="path4009" transform="matrix(.36661 0 0 .36661 130.06 114.53)" fill="#666" d="m-24.5 142.75c0 5.3848-4.3652 9.75-9.75 9.75s-9.75-4.3652-9.75-9.75 4.3652-9.75 9.75-9.75 9.75 4.3652 9.75 9.75z"/>
        </g>
        <g id="g4011" transform="translate(25 1)">
          <path id="path4013" transform="matrix(.61538 0 0 .61538 138.58 79.016)" fill="#666" d="m-24.5 142.75c0 5.3848-4.3652 9.75-9.75 9.75s-9.75-4.3652-9.75-9.75 4.3652-9.75 9.75-9.75 9.75 4.3652 9.75 9.75z"/>
          <path id="path4015" transform="matrix(.51064 0 0 .51064 134.99 93.969)" fill="#aaa" d="m-24.5 142.75c0 5.3848-4.3652 9.75-9.75 9.75s-9.75-4.3652-9.75-9.75 4.3652-9.75 9.75-9.75 9.75 4.3652 9.75 9.75z"/>
          <path id="path4017" transform="matrix(.36661 0 0 .36661 130.06 114.53)" fill="#666" d="m-24.5 142.75c0 5.3848-4.3652 9.75-9.75 9.75s-9.75-4.3652-9.75-9.75 4.3652-9.75 9.75-9.75 9.75 4.3652 9.75 9.75z"/>
        </g>
        <g id="g4019" transform="translate(7.5 1)">
          <path id="path4021" transform="matrix(.61538 0 0 .61538 138.58 79.016)" fill="#666" d="m-24.5 142.75c0 5.3848-4.3652 9.75-9.75 9.75s-9.75-4.3652-9.75-9.75 4.3652-9.75 9.75-9.75 9.75 4.3652 9.75 9.75z"/>
          <path id="path4023" transform="matrix(.51064 0 0 .51064 134.99 93.969)" fill="#aaa" d="m-24.5 142.75c0 5.3848-4.3652 9.75-9.75 9.75s-9.75-4.3652-9.75-9.75 4.3652-9.75 9.75-9.75 9.75 4.3652 9.75 9.75z"/>
          <path id="path4025" transform="matrix(.36661 0 0 .36661 130.06 114.53)" fill="#666" d="m-24.5 142.75c0 5.3848-4.3652 9.75-9.75 9.75s-9.75-4.3652-9.75-9.75 4.3652-9.75 9.75-9.75 9.75 4.3652 9.75 9.75z"/>
        </g>
        <g id="g4027" transform="translate(-45 1)">
          <path id="path4029" transform="matrix(.61538 0 0 .61538 138.58 79.016)" fill="#666" d="m-24.5 142.75c0 5.3848-4.3652 9.75-9.75 9.75s-9.75-4.3652-9.75-9.75 4.3652-9.75 9.75-9.75 9.75 4.3652 9.75 9.75z"/>
          <path id="path4031" transform="matrix(.51064 0 0 .51064 134.99 93.969)" fill="#aaa" d="m-24.5 142.75c0 5.3848-4.3652 9.75-9.75 9.75s-9.75-4.3652-9.75-9.75 4.3652-9.75 9.75-9.75 9.75 4.3652 9.75 9.75z"/>
          <path id="path4033" transform="matrix(.36661 0 0 .36661 130.06 114.53)" fill="#666" d="m-24.5 142.75c0 5.3848-4.3652 9.75-9.75 9.75s-9.75-4.3652-9.75-9.75 4.3652-9.75 9.75-9.75 9.75 4.3652 9.75 9.75z"/>
        </g>
        <g id="g4035" transform="translate(-27.5 1)">
          <path id="path4037" transform="matrix(.61538 0 0 .61538 138.58 79.016)" fill="#666" d="m-24.5 142.75c0 5.3848-4.3652 9.75-9.75 9.75s-9.75-4.3652-9.75-9.75 4.3652-9.75 9.75-9.75 9.75 4.3652 9.75 9.75z"/>
          <path id="path4039" transform="matrix(.51064 0 0 .51064 134.99 93.969)" fill="#aaa" d="m-24.5 142.75c0 5.3848-4.3652 9.75-9.75 9.75s-9.75-4.3652-9.75-9.75 4.3652-9.75 9.75-9.75 9.75 4.3652 9.75 9.75z"/>
          <path id="path4041" transform="matrix(.36661 0 0 .36661 130.06 114.53)" fill="#666" d="m-24.5 142.75c0 5.3848-4.3652 9.75-9.75 9.75s-9.75-4.3652-9.75-9.75 4.3652-9.75 9.75-9.75 9.75 4.3652 9.75 9.75z"/>
        </g>
      </g>
      <g id="g4663" transform="translate(0 -.13641)">
        <g id="g4043" transform="translate(.0000038147 15.5)">
          <path id="path4045" transform="matrix(.61538 0 0 .61538 138.58 79.016)" fill="#666" d="m-24.5 142.75c0 5.3848-4.3652 9.75-9.75 9.75s-9.75-4.3652-9.75-9.75 4.3652-9.75 9.75-9.75 9.75 4.3652 9.75 9.75z"/>
          <path id="path4047" transform="matrix(.51064 0 0 .51064 134.99 93.969)" fill="#aaa" d="m-24.5 142.75c0 5.3848-4.3652 9.75-9.75 9.75s-9.75-4.3652-9.75-9.75 4.3652-9.75 9.75-9.75 9.75 4.3652 9.75 9.75z"/>
          <path id="path4049" transform="matrix(.36661 0 0 .36661 130.06 114.53)" fill="#666" d="m-24.5 142.75c0 5.3848-4.3652 9.75-9.75 9.75s-9.75-4.3652-9.75-9.75 4.3652-9.75 9.75-9.75 9.75 4.3652 9.75 9.75z"/>
        </g>
        <g id="g4051" transform="translate(70 15.5)">
          <path id="path4053" transform="matrix(.61538 0 0 .61538 138.58 79.016)" fill="#666" d="m-24.5 142.75c0 5.3848-4.3652 9.75-9.75 9.75s-9.75-4.3652-9.75-9.75 4.3652-9.75 9.75-9.75 9.75 4.3652 9.75 9.75z"/>
          <path id="path4055" transform="matrix(.51064 0 0 .51064 134.99 93.969)" fill="#aaa" d="m-24.5 142.75c0 5.3848-4.3652 9.75-9.75 9.75s-9.75-4.3652-9.75-9.75 4.3652-9.75 9.75-9.75 9.75 4.3652 9.75 9.75z"/>
          <path id="path4057" transform="matrix(.36661 0 0 .36661 130.06 114.53)" fill="#666" d="m-24.5 142.75c0 5.3848-4.3652 9.75-9.75 9.75s-9.75-4.3652-9.75-9.75 4.3652-9.75 9.75-9.75 9.75 4.3652 9.75 9.75z"/>
        </g>
        <g id="g4059" transform="translate(52.5 15.5)">
          <path id="path4061" transform="matrix(.61538 0 0 .61538 138.58 79.016)" fill="#666" d="m-24.5 142.75c0 5.3848-4.3652 9.75-9.75 9.75s-9.75-4.3652-9.75-9.75 4.3652-9.75 9.75-9.75 9.75 4.3652 9.75 9.75z"/>
          <path id="path4063" transform="matrix(.51064 0 0 .51064 134.99 93.969)" fill="#aaa" d="m-24.5 142.75c0 5.3848-4.3652 9.75-9.75 9.75s-9.75-4.3652-9.75-9.75 4.3652-9.75 9.75-9.75 9.75 4.3652 9.75 9.75z"/>
          <path id="path4065" transform="matrix(.36661 0 0 .36661 130.06 114.53)" fill="#666" d="m-24.5 142.75c0 5.3848-4.3652 9.75-9.75 9.75s-9.75-4.3652-9.75-9.75 4.3652-9.75 9.75-9.75 9.75 4.3652 9.75 9.75z"/>
        </g>
        <g id="g4067" transform="translate(35 15.5)">
          <path id="path4069" transform="matrix(.61538 0 0 .61538 138.58 79.016)" fill="#666" d="m-24.5 142.75c0 5.3848-4.3652 9.75-9.75 9.75s-9.75-4.3652-9.75-9.75 4.3652-9.75 9.75-9.75 9.75 4.3652 9.75 9.75z"/>
          <path id="path4071" transform="matrix(.51064 0 0 .51064 134.99 93.969)" fill="#aaa" d="m-24.5 142.75c0 5.3848-4.3652 9.75-9.75 9.75s-9.75-4.3652-9.75-9.75 4.3652-9.75 9.75-9.75 9.75 4.3652 9.75 9.75z"/>
          <path id="path4073" transform="matrix(.36661 0 0 .36661 130.06 114.53)" fill="#666" d="m-24.5 142.75c0 5.3848-4.3652 9.75-9.75 9.75s-9.75-4.3652-9.75-9.75 4.3652-9.75 9.75-9.75 9.75 4.3652 9.75 9.75z"/>
        </g>
        <g id="g4075" transform="translate(17.5 15.5)">
          <path id="path4077" transform="matrix(.61538 0 0 .61538 138.58 79.016)" fill="#666" d="m-24.5 142.75c0 5.3848-4.3652 9.75-9.75 9.75s-9.75-4.3652-9.75-9.75 4.3652-9.75 9.75-9.75 9.75 4.3652 9.75 9.75z"/>
          <path id="path4079" transform="matrix(.51064 0 0 .51064 134.99 93.969)" fill="#aaa" d="m-24.5 142.75c0 5.3848-4.3652 9.75-9.75 9.75s-9.75-4.3652-9.75-9.75 4.3652-9.75 9.75-9.75 9.75 4.3652 9.75 9.75z"/>
          <path id="path4081" transform="matrix(.36661 0 0 .36661 130.06 114.53)" fill="#666" d="m-24.5 142.75c0 5.3848-4.3652 9.75-9.75 9.75s-9.75-4.3652-9.75-9.75 4.3652-9.75 9.75-9.75 9.75 4.3652 9.75 9.75z"/>
        </g>
        <g id="g4083" transform="translate(-35,15.5)">
          <path id="path4085" transform="matrix(.61538 0 0 .61538 138.58 79.016)" fill="#666" d="m-24.5 142.75c0 5.3848-4.3652 9.75-9.75 9.75s-9.75-4.3652-9.75-9.75 4.3652-9.75 9.75-9.75 9.75 4.3652 9.75 9.75z"/>
          <path id="path4087" transform="matrix(.51064 0 0 .51064 134.99 93.969)" fill="#aaa" d="m-24.5 142.75c0 5.3848-4.3652 9.75-9.75 9.75s-9.75-4.3652-9.75-9.75 4.3652-9.75 9.75-9.75 9.75 4.3652 9.75 9.75z"/>
          <path id="path4089" transform="matrix(.36661 0 0 .36661 130.06 114.53)" fill="#666" d="m-24.5 142.75c0 5.3848-4.3652 9.75-9.75 9.75s-9.75-4.3652-9.75-9.75 4.3652-9.75 9.75-9.75 9.75 4.3652 9.75 9.75z"/>
        </g>
        <g id="g4091" transform="translate(-17.5 15.5)">
          <path id="path4093" transform="matrix(.61538 0 0 .61538 138.58 79.016)" fill="#666" d="m-24.5 142.75c0 5.3848-4.3652 9.75-9.75 9.75s-9.75-4.3652-9.75-9.75 4.3652-9.75 9.75-9.75 9.75 4.3652 9.75 9.75z"/>
          <path id="path4095" transform="matrix(.51064 0 0 .51064 134.99 93.969)" fill="#aaa" d="m-24.5 142.75c0 5.3848-4.3652 9.75-9.75 9.75s-9.75-4.3652-9.75-9.75 4.3652-9.75 9.75-9.75 9.75 4.3652 9.75 9.75z"/>
          <path id="path4097" transform="matrix(.36661 0 0 .36661 130.06 114.53)" fill="#666" d="m-24.5 142.75c0 5.3848-4.3652 9.75-9.75 9.75s-9.75-4.3652-9.75-9.75 4.3652-9.75 9.75-9.75 9.75 4.3652 9.75 9.75z"/>
        </g>
      </g>
      <g id="g4693" transform="translate(0 -.45458)">
        <g id="g4099" transform="translate(-10 30.5)">
          <path id="path4101" transform="matrix(.61538 0 0 .61538 138.58 79.016)" fill="#666" d="m-24.5 142.75c0 5.3848-4.3652 9.75-9.75 9.75s-9.75-4.3652-9.75-9.75 4.3652-9.75 9.75-9.75 9.75 4.3652 9.75 9.75z"/>
          <path id="path4103" transform="matrix(.51064 0 0 .51064 134.99 93.969)" fill="#aaa" d="m-24.5 142.75c0 5.3848-4.3652 9.75-9.75 9.75s-9.75-4.3652-9.75-9.75 4.3652-9.75 9.75-9.75 9.75 4.3652 9.75 9.75z"/>
          <path id="path4105" transform="matrix(.36661 0 0 .36661 130.06 114.53)" fill="#666" d="m-24.5 142.75c0 5.3848-4.3652 9.75-9.75 9.75s-9.75-4.3652-9.75-9.75 4.3652-9.75 9.75-9.75 9.75 4.3652 9.75 9.75z"/>
        </g>
        <g id="g4107" transform="translate(60 30.5)">
          <path id="path4109" transform="matrix(.61538 0 0 .61538 138.58 79.016)" fill="#666" d="m-24.5 142.75c0 5.3848-4.3652 9.75-9.75 9.75s-9.75-4.3652-9.75-9.75 4.3652-9.75 9.75-9.75 9.75 4.3652 9.75 9.75z"/>
          <path id="path4111" transform="matrix(.51064 0 0 .51064 134.99 93.969)" fill="#aaa" d="m-24.5 142.75c0 5.3848-4.3652 9.75-9.75 9.75s-9.75-4.3652-9.75-9.75 4.3652-9.75 9.75-9.75 9.75 4.3652 9.75 9.75z"/>
          <path id="path4113" transform="matrix(.36661 0 0 .36661 130.06 114.53)" fill="#666" d="m-24.5 142.75c0 5.3848-4.3652 9.75-9.75 9.75s-9.75-4.3652-9.75-9.75 4.3652-9.75 9.75-9.75 9.75 4.3652 9.75 9.75z"/>
        </g>
        <g id="g4115" transform="translate(42.5 30.5)">
          <path id="path4117" transform="matrix(.61538 0 0 .61538 138.58 79.016)" fill="#666" d="m-24.5 142.75c0 5.3848-4.3652 9.75-9.75 9.75s-9.75-4.3652-9.75-9.75 4.3652-9.75 9.75-9.75 9.75 4.3652 9.75 9.75z"/>
          <path id="path4119" transform="matrix(.51064 0 0 .51064 134.99 93.969)" fill="#aaa" d="m-24.5 142.75c0 5.3848-4.3652 9.75-9.75 9.75s-9.75-4.3652-9.75-9.75 4.3652-9.75 9.75-9.75 9.75 4.3652 9.75 9.75z"/>
          <path id="path4121" transform="matrix(.36661 0 0 .36661 130.06 114.53)" fill="#666" d="m-24.5 142.75c0 5.3848-4.3652 9.75-9.75 9.75s-9.75-4.3652-9.75-9.75 4.3652-9.75 9.75-9.75 9.75 4.3652 9.75 9.75z"/>
        </g>
        <g id="g4123" transform="translate(25 30.5)">
          <path id="path4125" transform="matrix(.61538 0 0 .61538 138.58 79.016)" fill="#666" d="m-24.5 142.75c0 5.3848-4.3652 9.75-9.75 9.75s-9.75-4.3652-9.75-9.75 4.3652-9.75 9.75-9.75 9.75 4.3652 9.75 9.75z"/>
          <path id="path4127" transform="matrix(.51064 0 0 .51064 134.99 93.969)" fill="#aaa" d="m-24.5 142.75c0 5.3848-4.3652 9.75-9.75 9.75s-9.75-4.3652-9.75-9.75 4.3652-9.75 9.75-9.75 9.75 4.3652 9.75 9.75z"/>
          <path id="path4129" transform="matrix(.36661 0 0 .36661 130.06 114.53)" fill="#666" d="m-24.5 142.75c0 5.3848-4.3652 9.75-9.75 9.75s-9.75-4.3652-9.75-9.75 4.3652-9.75 9.75-9.75 9.75 4.3652 9.75 9.75z"/>
        </g>
        <g id="g4131" transform="translate(7.5 30.5)">
          <path id="path4133" transform="matrix(.61538 0 0 .61538 138.58 79.016)" fill="#666" d="m-24.5 142.75c0 5.3848-4.3652 9.75-9.75 9.75s-9.75-4.3652-9.75-9.75 4.3652-9.75 9.75-9.75 9.75 4.3652 9.75 9.75z"/>
          <path id="path4135" transform="matrix(.51064 0 0 .51064 134.99 93.969)" fill="#aaa" d="m-24.5 142.75c0 5.3848-4.3652 9.75-9.75 9.75s-9.75-4.3652-9.75-9.75 4.3652-9.75 9.75-9.75 9.75 4.3652 9.75 9.75z"/>
          <path id="path4137" transform="matrix(.36661 0 0 .36661 130.06 114.53)" fill="#666" d="m-24.5 142.75c0 5.3848-4.3652 9.75-9.75 9.75s-9.75-4.3652-9.75-9.75 4.3652-9.75 9.75-9.75 9.75 4.3652 9.75 9.75z"/>
        </g>
        <g id="g4139" transform="translate(-45,30.5)">
          <path id="path4141" transform="matrix(.61538 0 0 .61538 138.58 79.016)" fill="#666" d="m-24.5 142.75c0 5.3848-4.3652 9.75-9.75 9.75s-9.75-4.3652-9.75-9.75 4.3652-9.75 9.75-9.75 9.75 4.3652 9.75 9.75z"/>
          <path id="path4143" transform="matrix(.51064 0 0 .51064 134.99 93.969)" fill="#aaa" d="m-24.5 142.75c0 5.3848-4.3652 9.75-9.75 9.75s-9.75-4.3652-9.75-9.75 4.3652-9.75 9.75-9.75 9.75 4.3652 9.75 9.75z"/>
          <path id="path4145" transform="matrix(.36661 0 0 .36661 130.06 114.53)" fill="#666" d="m-24.5 142.75c0 5.3848-4.3652 9.75-9.75 9.75s-9.75-4.3652-9.75-9.75 4.3652-9.75 9.75-9.75 9.75 4.3652 9.75 9.75z"/>
        </g>
        <g id="g4147" transform="translate(-27.5 30.5)">
          <path id="path4149" transform="matrix(.61538 0 0 .61538 138.58 79.016)" fill="#666" d="m-24.5 142.75c0 5.3848-4.3652 9.75-9.75 9.75s-9.75-4.3652-9.75-9.75 4.3652-9.75 9.75-9.75 9.75 4.3652 9.75 9.75z"/>
          <path id="path4151" transform="matrix(.51064 0 0 .51064 134.99 93.969)" fill="#aaa" d="m-24.5 142.75c0 5.3848-4.3652 9.75-9.75 9.75s-9.75-4.3652-9.75-9.75 4.3652-9.75 9.75-9.75 9.75 4.3652 9.75 9.75z"/>
          <path id="path4153" transform="matrix(.36661 0 0 .36661 130.06 114.53)" fill="#666" d="m-24.5 142.75c0 5.3848-4.3652 9.75-9.75 9.75s-9.75-4.3652-9.75-9.75 4.3652-9.75 9.75-9.75 9.75 4.3652 9.75 9.75z"/>
        </g>
      </g>
      <g id="g4723" transform="translate(0 .72724)">
        <g id="g4155" transform="translate(.0000038147 44)">
          <path id="path4157" transform="matrix(.61538 0 0 .61538 138.58 79.016)" fill="#666" d="m-24.5 142.75c0 5.3848-4.3652 9.75-9.75 9.75s-9.75-4.3652-9.75-9.75 4.3652-9.75 9.75-9.75 9.75 4.3652 9.75 9.75z"/>
          <path id="path4159" transform="matrix(.51064 0 0 .51064 134.99 93.969)" fill="#aaa" d="m-24.5 142.75c0 5.3848-4.3652 9.75-9.75 9.75s-9.75-4.3652-9.75-9.75 4.3652-9.75 9.75-9.75 9.75 4.3652 9.75 9.75z"/>
          <path id="path4161" transform="matrix(.36661 0 0 .36661 130.06 114.53)" fill="#666" d="m-24.5 142.75c0 5.3848-4.3652 9.75-9.75 9.75s-9.75-4.3652-9.75-9.75 4.3652-9.75 9.75-9.75 9.75 4.3652 9.75 9.75z"/>
        </g>
        <g id="g4163" transform="translate(70 44)">
          <path id="path4165" transform="matrix(.61538 0 0 .61538 138.58 79.016)" fill="#666" d="m-24.5 142.75c0 5.3848-4.3652 9.75-9.75 9.75s-9.75-4.3652-9.75-9.75 4.3652-9.75 9.75-9.75 9.75 4.3652 9.75 9.75z"/>
          <path id="path4167" transform="matrix(.51064 0 0 .51064 134.99 93.969)" fill="#aaa" d="m-24.5 142.75c0 5.3848-4.3652 9.75-9.75 9.75s-9.75-4.3652-9.75-9.75 4.3652-9.75 9.75-9.75 9.75 4.3652 9.75 9.75z"/>
          <path id="path4169" transform="matrix(.36661 0 0 .36661 130.06 114.53)" fill="#666" d="m-24.5 142.75c0 5.3848-4.3652 9.75-9.75 9.75s-9.75-4.3652-9.75-9.75 4.3652-9.75 9.75-9.75 9.75 4.3652 9.75 9.75z"/>
        </g>
        <g id="g4171" transform="translate(52.5 44)">
          <path id="path4173" transform="matrix(.61538 0 0 .61538 138.58 79.016)" fill="#666" d="m-24.5 142.75c0 5.3848-4.3652 9.75-9.75 9.75s-9.75-4.3652-9.75-9.75 4.3652-9.75 9.75-9.75 9.75 4.3652 9.75 9.75z"/>
          <path id="path4175" transform="matrix(.51064 0 0 .51064 134.99 93.969)" fill="#aaa" d="m-24.5 142.75c0 5.3848-4.3652 9.75-9.75 9.75s-9.75-4.3652-9.75-9.75 4.3652-9.75 9.75-9.75 9.75 4.3652 9.75 9.75z"/>
          <path id="path4177" transform="matrix(.36661 0 0 .36661 130.06 114.53)" fill="#666" d="m-24.5 142.75c0 5.3848-4.3652 9.75-9.75 9.75s-9.75-4.3652-9.75-9.75 4.3652-9.75 9.75-9.75 9.75 4.3652 9.75 9.75z"/>
        </g>
        <g id="g4179" transform="translate(35 44)">
          <path id="path4181" transform="matrix(.61538 0 0 .61538 138.58 79.016)" fill="#666" d="m-24.5 142.75c0 5.3848-4.3652 9.75-9.75 9.75s-9.75-4.3652-9.75-9.75 4.3652-9.75 9.75-9.75 9.75 4.3652 9.75 9.75z"/>
          <path id="path4183" transform="matrix(.51064 0 0 .51064 134.99 93.969)" fill="#aaa" d="m-24.5 142.75c0 5.3848-4.3652 9.75-9.75 9.75s-9.75-4.3652-9.75-9.75 4.3652-9.75 9.75-9.75 9.75 4.3652 9.75 9.75z"/>
          <path id="path4185" transform="matrix(.36661 0 0 .36661 130.06 114.53)" fill="#666" d="m-24.5 142.75c0 5.3848-4.3652 9.75-9.75 9.75s-9.75-4.3652-9.75-9.75 4.3652-9.75 9.75-9.75 9.75 4.3652 9.75 9.75z"/>
        </g>
        <g id="g4187" transform="translate(17.5 44)">
          <path id="path4189" transform="matrix(.61538 0 0 .61538 138.58 79.016)" fill="#666" d="m-24.5 142.75c0 5.3848-4.3652 9.75-9.75 9.75s-9.75-4.3652-9.75-9.75 4.3652-9.75 9.75-9.75 9.75 4.3652 9.75 9.75z"/>
          <path id="path4191" transform="matrix(.51064 0 0 .51064 134.99 93.969)" fill="#aaa" d="m-24.5 142.75c0 5.3848-4.3652 9.75-9.75 9.75s-9.75-4.3652-9.75-9.75 4.3652-9.75 9.75-9.75 9.75 4.3652 9.75 9.75z"/>
          <path id="path4193" transform="matrix(.36661 0 0 .36661 130.06 114.53)" fill="#666" d="m-24.5 142.75c0 5.3848-4.3652 9.75-9.75 9.75s-9.75-4.3652-9.75-9.75 4.3652-9.75 9.75-9.75 9.75 4.3652 9.75 9.75z"/>
        </g>
        <g id="g4195" transform="translate(-35,44)">
          <path id="path4197" transform="matrix(.61538 0 0 .61538 138.58 79.016)" fill="#666" d="m-24.5 142.75c0 5.3848-4.3652 9.75-9.75 9.75s-9.75-4.3652-9.75-9.75 4.3652-9.75 9.75-9.75 9.75 4.3652 9.75 9.75z"/>
          <path id="path4199" transform="matrix(.51064 0 0 .51064 134.99 93.969)" fill="#aaa" d="m-24.5 142.75c0 5.3848-4.3652 9.75-9.75 9.75s-9.75-4.3652-9.75-9.75 4.3652-9.75 9.75-9.75 9.75 4.3652 9.75 9.75z"/>
          <path id="path4201" transform="matrix(.36661 0 0 .36661 130.06 114.53)" fill="#666" d="m-24.5 142.75c0 5.3848-4.3652 9.75-9.75 9.75s-9.75-4.3652-9.75-9.75 4.3652-9.75 9.75-9.75 9.75 4.3652 9.75 9.75z"/>
        </g>
        <g id="g4203" transform="translate(-17.5 44)">
          <path id="path4205" transform="matrix(.61538 0 0 .61538 138.58 79.016)" fill="#666" d="m-24.5 142.75c0 5.3848-4.3652 9.75-9.75 9.75s-9.75-4.3652-9.75-9.75 4.3652-9.75 9.75-9.75 9.75 4.3652 9.75 9.75z"/>
          <path id="path4207" transform="matrix(.51064 0 0 .51064 134.99 93.969)" fill="#aaa" d="m-24.5 142.75c0 5.3848-4.3652 9.75-9.75 9.75s-9.75-4.3652-9.75-9.75 4.3652-9.75 9.75-9.75 9.75 4.3652 9.75 9.75z"/>
          <path id="path4209" transform="matrix(.36661 0 0 .36661 130.06 114.53)" fill="#666" d="m-24.5 142.75c0 5.3848-4.3652 9.75-9.75 9.75s-9.75-4.3652-9.75-9.75 4.3652-9.75 9.75-9.75 9.75 4.3652 9.75 9.75z"/>
        </g>
      </g>
      <g id="g4753" transform="translate(0 .40907)">
        <g id="g4211" transform="translate(-10 59)">
          <path id="path4213" transform="matrix(.61538 0 0 .61538 138.58 79.016)" fill="#666" d="m-24.5 142.75c0 5.3848-4.3652 9.75-9.75 9.75s-9.75-4.3652-9.75-9.75 4.3652-9.75 9.75-9.75 9.75 4.3652 9.75 9.75z"/>
          <path id="path4215" transform="matrix(.51064 0 0 .51064 134.99 93.969)" fill="#aaa" d="m-24.5 142.75c0 5.3848-4.3652 9.75-9.75 9.75s-9.75-4.3652-9.75-9.75 4.3652-9.75 9.75-9.75 9.75 4.3652 9.75 9.75z"/>
          <path id="path4217" transform="matrix(.36661 0 0 .36661 130.06 114.53)" fill="#666" d="m-24.5 142.75c0 5.3848-4.3652 9.75-9.75 9.75s-9.75-4.3652-9.75-9.75 4.3652-9.75 9.75-9.75 9.75 4.3652 9.75 9.75z"/>
        </g>
        <g id="g4219" transform="translate(60 59)">
          <path id="path4221" transform="matrix(.61538 0 0 .61538 138.58 79.016)" fill="#666" d="m-24.5 142.75c0 5.3848-4.3652 9.75-9.75 9.75s-9.75-4.3652-9.75-9.75 4.3652-9.75 9.75-9.75 9.75 4.3652 9.75 9.75z"/>
          <path id="path4223" transform="matrix(.51064 0 0 .51064 134.99 93.969)" fill="#aaa" d="m-24.5 142.75c0 5.3848-4.3652 9.75-9.75 9.75s-9.75-4.3652-9.75-9.75 4.3652-9.75 9.75-9.75 9.75 4.3652 9.75 9.75z"/>
          <path id="path4225" transform="matrix(.36661 0 0 .36661 130.06 114.53)" fill="#666" d="m-24.5 142.75c0 5.3848-4.3652 9.75-9.75 9.75s-9.75-4.3652-9.75-9.75 4.3652-9.75 9.75-9.75 9.75 4.3652 9.75 9.75z"/>
        </g>
        <g id="g4227" transform="translate(42.5 59)">
          <path id="path4229" transform="matrix(.61538 0 0 .61538 138.58 79.016)" fill="#666" d="m-24.5 142.75c0 5.3848-4.3652 9.75-9.75 9.75s-9.75-4.3652-9.75-9.75 4.3652-9.75 9.75-9.75 9.75 4.3652 9.75 9.75z"/>
          <path id="path4231" transform="matrix(.51064 0 0 .51064 134.99 93.969)" fill="#aaa" d="m-24.5 142.75c0 5.3848-4.3652 9.75-9.75 9.75s-9.75-4.3652-9.75-9.75 4.3652-9.75 9.75-9.75 9.75 4.3652 9.75 9.75z"/>
          <path id="path4233" transform="matrix(.36661 0 0 .36661 130.06 114.53)" fill="#666" d="m-24.5 142.75c0 5.3848-4.3652 9.75-9.75 9.75s-9.75-4.3652-9.75-9.75 4.3652-9.75 9.75-9.75 9.75 4.3652 9.75 9.75z"/>
        </g>
        <g id="g4235" transform="translate(25 59)">
          <path id="path4237" transform="matrix(.61538 0 0 .61538 138.58 79.016)" fill="#666" d="m-24.5 142.75c0 5.3848-4.3652 9.75-9.75 9.75s-9.75-4.3652-9.75-9.75 4.3652-9.75 9.75-9.75 9.75 4.3652 9.75 9.75z"/>
          <path id="path4239" transform="matrix(.51064 0 0 .51064 134.99 93.969)" fill="#aaa" d="m-24.5 142.75c0 5.3848-4.3652 9.75-9.75 9.75s-9.75-4.3652-9.75-9.75 4.3652-9.75 9.75-9.75 9.75 4.3652 9.75 9.75z"/>
          <path id="path4241" transform="matrix(.36661 0 0 .36661 130.06 114.53)" fill="#666" d="m-24.5 142.75c0 5.3848-4.3652 9.75-9.75 9.75s-9.75-4.3652-9.75-9.75 4.3652-9.75 9.75-9.75 9.75 4.3652 9.75 9.75z"/>
        </g>
        <g id="g4243" transform="translate(7.5 59)">
          <path id="path4245" transform="matrix(.61538 0 0 .61538 138.58 79.016)" fill="#666" d="m-24.5 142.75c0 5.3848-4.3652 9.75-9.75 9.75s-9.75-4.3652-9.75-9.75 4.3652-9.75 9.75-9.75 9.75 4.3652 9.75 9.75z"/>
          <path id="path4247" transform="matrix(.51064 0 0 .51064 134.99 93.969)" fill="#aaa" d="m-24.5 142.75c0 5.3848-4.3652 9.75-9.75 9.75s-9.75-4.3652-9.75-9.75 4.3652-9.75 9.75-9.75 9.75 4.3652 9.75 9.75z"/>
          <path id="path4249" transform="matrix(.36661 0 0 .36661 130.06 114.53)" fill="#666" d="m-24.5 142.75c0 5.3848-4.3652 9.75-9.75 9.75s-9.75-4.3652-9.75-9.75 4.3652-9.75 9.75-9.75 9.75 4.3652 9.75 9.75z"/>
        </g>
        <g id="g4251" transform="translate(-45,59)">
          <path id="path4253" transform="matrix(.61538 0 0 .61538 138.58 79.016)" fill="#666" d="m-24.5 142.75c0 5.3848-4.3652 9.75-9.75 9.75s-9.75-4.3652-9.75-9.75 4.3652-9.75 9.75-9.75 9.75 4.3652 9.75 9.75z"/>
          <path id="path4255" transform="matrix(.51064 0 0 .51064 134.99 93.969)" fill="#aaa" d="m-24.5 142.75c0 5.3848-4.3652 9.75-9.75 9.75s-9.75-4.3652-9.75-9.75 4.3652-9.75 9.75-9.75 9.75 4.3652 9.75 9.75z"/>
          <path id="path4257" transform="matrix(.36661 0 0 .36661 130.06 114.53)" fill="#666" d="m-24.5 142.75c0 5.3848-4.3652 9.75-9.75 9.75s-9.75-4.3652-9.75-9.75 4.3652-9.75 9.75-9.75 9.75 4.3652 9.75 9.75z"/>
        </g>
        <g id="g4259" transform="translate(-27.5 59)">
          <path id="path4261" transform="matrix(.61538 0 0 .61538 138.58 79.016)" fill="#666" d="m-24.5 142.75c0 5.3848-4.3652 9.75-9.75 9.75s-9.75-4.3652-9.75-9.75 4.3652-9.75 9.75-9.75 9.75 4.3652 9.75 9.75z"/>
          <path id="path4263" transform="matrix(.51064 0 0 .51064 134.99 93.969)" fill="#aaa" d="m-24.5 142.75c0 5.3848-4.3652 9.75-9.75 9.75s-9.75-4.3652-9.75-9.75 4.3652-9.75 9.75-9.75 9.75 4.3652 9.75 9.75z"/>
          <path id="path4265" transform="matrix(.36661 0 0 .36661 130.06 114.53)" fill="#666" d="m-24.5 142.75c0 5.3848-4.3652 9.75-9.75 9.75s-9.75-4.3652-9.75-9.75 4.3652-9.75 9.75-9.75 9.75 4.3652 9.75 9.75z"/>
        </g>
      </g>
      <g id="g4783" transform="translate(0 1.0909)">
        <g id="g4267" transform="translate(.0000038147 73)">
          <path id="path4269" transform="matrix(.61538 0 0 .61538 138.58 79.016)" fill="#666" d="m-24.5 142.75c0 5.3848-4.3652 9.75-9.75 9.75s-9.75-4.3652-9.75-9.75 4.3652-9.75 9.75-9.75 9.75 4.3652 9.75 9.75z"/>
          <path id="path4271" transform="matrix(.51064 0 0 .51064 134.99 93.969)" fill="#aaa" d="m-24.5 142.75c0 5.3848-4.3652 9.75-9.75 9.75s-9.75-4.3652-9.75-9.75 4.3652-9.75 9.75-9.75 9.75 4.3652 9.75 9.75z"/>
          <path id="path4273" transform="matrix(.36661 0 0 .36661 130.06 114.53)" fill="#666" d="m-24.5 142.75c0 5.3848-4.3652 9.75-9.75 9.75s-9.75-4.3652-9.75-9.75 4.3652-9.75 9.75-9.75 9.75 4.3652 9.75 9.75z"/>
        </g>
        <g id="g4275" transform="translate(70 73)">
          <path id="path4277" transform="matrix(.61538 0 0 .61538 138.58 79.016)" fill="#666" d="m-24.5 142.75c0 5.3848-4.3652 9.75-9.75 9.75s-9.75-4.3652-9.75-9.75 4.3652-9.75 9.75-9.75 9.75 4.3652 9.75 9.75z"/>
          <path id="path4279" transform="matrix(.51064 0 0 .51064 134.99 93.969)" fill="#aaa" d="m-24.5 142.75c0 5.3848-4.3652 9.75-9.75 9.75s-9.75-4.3652-9.75-9.75 4.3652-9.75 9.75-9.75 9.75 4.3652 9.75 9.75z"/>
          <path id="path4281" transform="matrix(.36661 0 0 .36661 130.06 114.53)" fill="#666" d="m-24.5 142.75c0 5.3848-4.3652 9.75-9.75 9.75s-9.75-4.3652-9.75-9.75 4.3652-9.75 9.75-9.75 9.75 4.3652 9.75 9.75z"/>
        </g>
        <g id="g4283" transform="translate(52.5 73)">
          <path id="path4285" transform="matrix(.61538 0 0 .61538 138.58 79.016)" fill="#666" d="m-24.5 142.75c0 5.3848-4.3652 9.75-9.75 9.75s-9.75-4.3652-9.75-9.75 4.3652-9.75 9.75-9.75 9.75 4.3652 9.75 9.75z"/>
          <path id="path4287" transform="matrix(.51064 0 0 .51064 134.99 93.969)" fill="#aaa" d="m-24.5 142.75c0 5.3848-4.3652 9.75-9.75 9.75s-9.75-4.3652-9.75-9.75 4.3652-9.75 9.75-9.75 9.75 4.3652 9.75 9.75z"/>
          <path id="path4289" transform="matrix(.36661 0 0 .36661 130.06 114.53)" fill="#666" d="m-24.5 142.75c0 5.3848-4.3652 9.75-9.75 9.75s-9.75-4.3652-9.75-9.75 4.3652-9.75 9.75-9.75 9.75 4.3652 9.75 9.75z"/>
        </g>
        <g id="g4291" transform="translate(35 73)">
          <path id="path4293" transform="matrix(.61538 0 0 .61538 138.58 79.016)" fill="#666" d="m-24.5 142.75c0 5.3848-4.3652 9.75-9.75 9.75s-9.75-4.3652-9.75-9.75 4.3652-9.75 9.75-9.75 9.75 4.3652 9.75 9.75z"/>
          <path id="path4295" transform="matrix(.51064 0 0 .51064 134.99 93.969)" fill="#aaa" d="m-24.5 142.75c0 5.3848-4.3652 9.75-9.75 9.75s-9.75-4.3652-9.75-9.75 4.3652-9.75 9.75-9.75 9.75 4.3652 9.75 9.75z"/>
          <path id="path4297" transform="matrix(.36661 0 0 .36661 130.06 114.53)" fill="#666" d="m-24.5 142.75c0 5.3848-4.3652 9.75-9.75 9.75s-9.75-4.3652-9.75-9.75 4.3652-9.75 9.75-9.75 9.75 4.3652 9.75 9.75z"/>
        </g>
        <g id="g4299" transform="translate(17.5 73)">
          <path id="path4301" transform="matrix(.61538 0 0 .61538 138.58 79.016)" fill="#666" d="m-24.5 142.75c0 5.3848-4.3652 9.75-9.75 9.75s-9.75-4.3652-9.75-9.75 4.3652-9.75 9.75-9.75 9.75 4.3652 9.75 9.75z"/>
          <path id="path4303" transform="matrix(.51064 0 0 .51064 134.99 93.969)" fill="#aaa" d="m-24.5 142.75c0 5.3848-4.3652 9.75-9.75 9.75s-9.75-4.3652-9.75-9.75 4.3652-9.75 9.75-9.75 9.75 4.3652 9.75 9.75z"/>
          <path id="path4305" transform="matrix(.36661 0 0 .36661 130.06 114.53)" fill="#666" d="m-24.5 142.75c0 5.3848-4.3652 9.75-9.75 9.75s-9.75-4.3652-9.75-9.75 4.3652-9.75 9.75-9.75 9.75 4.3652 9.75 9.75z"/>
        </g>
        <g id="g4307" transform="translate(-35,73)">
          <path id="path4309" transform="matrix(.61538 0 0 .61538 138.58 79.016)" fill="#666" d="m-24.5 142.75c0 5.3848-4.3652 9.75-9.75 9.75s-9.75-4.3652-9.75-9.75 4.3652-9.75 9.75-9.75 9.75 4.3652 9.75 9.75z"/>
          <path id="path4311" transform="matrix(.51064 0 0 .51064 134.99 93.969)" fill="#aaa" d="m-24.5 142.75c0 5.3848-4.3652 9.75-9.75 9.75s-9.75-4.3652-9.75-9.75 4.3652-9.75 9.75-9.75 9.75 4.3652 9.75 9.75z"/>
          <path id="path4313" transform="matrix(.36661 0 0 .36661 130.06 114.53)" fill="#666" d="m-24.5 142.75c0 5.3848-4.3652 9.75-9.75 9.75s-9.75-4.3652-9.75-9.75 4.3652-9.75 9.75-9.75 9.75 4.3652 9.75 9.75z"/>
        </g>
        <g id="g4315" transform="translate(-17.5 73)">
          <path id="path4317" transform="matrix(.61538 0 0 .61538 138.58 79.016)" fill="#666" d="m-24.5 142.75c0 5.3848-4.3652 9.75-9.75 9.75s-9.75-4.3652-9.75-9.75 4.3652-9.75 9.75-9.75 9.75 4.3652 9.75 9.75z"/>
          <path id="path4319" transform="matrix(.51064 0 0 .51064 134.99 93.969)" fill="#aaa" d="m-24.5 142.75c0 5.3848-4.3652 9.75-9.75 9.75s-9.75-4.3652-9.75-9.75 4.3652-9.75 9.75-9.75 9.75 4.3652 9.75 9.75z"/>
          <path id="path4321" transform="matrix(.36661 0 0 .36661 130.06 114.53)" fill="#666" d="m-24.5 142.75c0 5.3848-4.3652 9.75-9.75 9.75s-9.75-4.3652-9.75-9.75 4.3652-9.75 9.75-9.75 9.75 4.3652 9.75 9.75z"/>
        </g>
      </g>
      <g id="g4813" transform="translate(0 .77271)">
        <g id="g4323" transform="translate(-10 88)">
          <path id="path4325" transform="matrix(.61538 0 0 .61538 138.58 79.016)" fill="#666" d="m-24.5 142.75c0 5.3848-4.3652 9.75-9.75 9.75s-9.75-4.3652-9.75-9.75 4.3652-9.75 9.75-9.75 9.75 4.3652 9.75 9.75z"/>
          <path id="path4327" transform="matrix(.51064 0 0 .51064 134.99 93.969)" fill="#aaa" d="m-24.5 142.75c0 5.3848-4.3652 9.75-9.75 9.75s-9.75-4.3652-9.75-9.75 4.3652-9.75 9.75-9.75 9.75 4.3652 9.75 9.75z"/>
          <path id="path4329" transform="matrix(.36661 0 0 .36661 130.06 114.53)" fill="#666" d="m-24.5 142.75c0 5.3848-4.3652 9.75-9.75 9.75s-9.75-4.3652-9.75-9.75 4.3652-9.75 9.75-9.75 9.75 4.3652 9.75 9.75z"/>
        </g>
        <g id="g4331" transform="translate(60 88)">
          <path id="path4333" transform="matrix(.61538 0 0 .61538 138.58 79.016)" fill="#666" d="m-24.5 142.75c0 5.3848-4.3652 9.75-9.75 9.75s-9.75-4.3652-9.75-9.75 4.3652-9.75 9.75-9.75 9.75 4.3652 9.75 9.75z"/>
          <path id="path4335" transform="matrix(.51064 0 0 .51064 134.99 93.969)" fill="#aaa" d="m-24.5 142.75c0 5.3848-4.3652 9.75-9.75 9.75s-9.75-4.3652-9.75-9.75 4.3652-9.75 9.75-9.75 9.75 4.3652 9.75 9.75z"/>
          <path id="path4337" transform="matrix(.36661 0 0 .36661 130.06 114.53)" fill="#666" d="m-24.5 142.75c0 5.3848-4.3652 9.75-9.75 9.75s-9.75-4.3652-9.75-9.75 4.3652-9.75 9.75-9.75 9.75 4.3652 9.75 9.75z"/>
        </g>
        <g id="g4339" transform="translate(42.5 88)">
          <path id="path4341" transform="matrix(.61538 0 0 .61538 138.58 79.016)" fill="#666" d="m-24.5 142.75c0 5.3848-4.3652 9.75-9.75 9.75s-9.75-4.3652-9.75-9.75 4.3652-9.75 9.75-9.75 9.75 4.3652 9.75 9.75z"/>
          <path id="path4343" transform="matrix(.51064 0 0 .51064 134.99 93.969)" fill="#aaa" d="m-24.5 142.75c0 5.3848-4.3652 9.75-9.75 9.75s-9.75-4.3652-9.75-9.75 4.3652-9.75 9.75-9.75 9.75 4.3652 9.75 9.75z"/>
          <path id="path4345" transform="matrix(.36661 0 0 .36661 130.06 114.53)" fill="#666" d="m-24.5 142.75c0 5.3848-4.3652 9.75-9.75 9.75s-9.75-4.3652-9.75-9.75 4.3652-9.75 9.75-9.75 9.75 4.3652 9.75 9.75z"/>
        </g>
        <g id="g4347" transform="translate(25 88)">
          <path id="path4349" transform="matrix(.61538 0 0 .61538 138.58 79.016)" fill="#666" d="m-24.5 142.75c0 5.3848-4.3652 9.75-9.75 9.75s-9.75-4.3652-9.75-9.75 4.3652-9.75 9.75-9.75 9.75 4.3652 9.75 9.75z"/>
          <path id="path4351" transform="matrix(.51064 0 0 .51064 134.99 93.969)" fill="#aaa" d="m-24.5 142.75c0 5.3848-4.3652 9.75-9.75 9.75s-9.75-4.3652-9.75-9.75 4.3652-9.75 9.75-9.75 9.75 4.3652 9.75 9.75z"/>
          <path id="path4353" transform="matrix(.36661 0 0 .36661 130.06 114.53)" fill="#666" d="m-24.5 142.75c0 5.3848-4.3652 9.75-9.75 9.75s-9.75-4.3652-9.75-9.75 4.3652-9.75 9.75-9.75 9.75 4.3652 9.75 9.75z"/>
        </g>
        <g id="g4355" transform="translate(7.5 88)">
          <path id="path4357" transform="matrix(.61538 0 0 .61538 138.58 79.016)" fill="#666" d="m-24.5 142.75c0 5.3848-4.3652 9.75-9.75 9.75s-9.75-4.3652-9.75-9.75 4.3652-9.75 9.75-9.75 9.75 4.3652 9.75 9.75z"/>
          <path id="path4359" transform="matrix(.51064 0 0 .51064 134.99 93.969)" fill="#aaa" d="m-24.5 142.75c0 5.3848-4.3652 9.75-9.75 9.75s-9.75-4.3652-9.75-9.75 4.3652-9.75 9.75-9.75 9.75 4.3652 9.75 9.75z"/>
          <path id="path4361" transform="matrix(.36661 0 0 .36661 130.06 114.53)" fill="#666" d="m-24.5 142.75c0 5.3848-4.3652 9.75-9.75 9.75s-9.75-4.3652-9.75-9.75 4.3652-9.75 9.75-9.75 9.75 4.3652 9.75 9.75z"/>
        </g>
        <g id="g4363" transform="translate(-45,88)">
          <path id="path4365" transform="matrix(.61538 0 0 .61538 138.58 79.016)" fill="#666" d="m-24.5 142.75c0 5.3848-4.3652 9.75-9.75 9.75s-9.75-4.3652-9.75-9.75 4.3652-9.75 9.75-9.75 9.75 4.3652 9.75 9.75z"/>
          <path id="path4367" transform="matrix(.51064 0 0 .51064 134.99 93.969)" fill="#aaa" d="m-24.5 142.75c0 5.3848-4.3652 9.75-9.75 9.75s-9.75-4.3652-9.75-9.75 4.3652-9.75 9.75-9.75 9.75 4.3652 9.75 9.75z"/>
          <path id="path4369" transform="matrix(.36661 0 0 .36661 130.06 114.53)" fill="#666" d="m-24.5 142.75c0 5.3848-4.3652 9.75-9.75 9.75s-9.75-4.3652-9.75-9.75 4.3652-9.75 9.75-9.75 9.75 4.3652 9.75 9.75z"/>
        </g>
        <g id="g4371" transform="translate(-27.5 88)">
          <path id="path4373" transform="matrix(.61538 0 0 .61538 138.58 79.016)" fill="#666" d="m-24.5 142.75c0 5.3848-4.3652 9.75-9.75 9.75s-9.75-4.3652-9.75-9.75 4.3652-9.75 9.75-9.75 9.75 4.3652 9.75 9.75z"/>
          <path id="path4375" transform="matrix(.51064 0 0 .51064 134.99 93.969)" fill="#aaa" d="m-24.5 142.75c0 5.3848-4.3652 9.75-9.75 9.75s-9.75-4.3652-9.75-9.75 4.3652-9.75 9.75-9.75 9.75 4.3652 9.75 9.75z"/>
          <path id="path4377" transform="matrix(.36661 0 0 .36661 130.06 114.53)" fill="#666" d="m-24.5 142.75c0 5.3848-4.3652 9.75-9.75 9.75s-9.75-4.3652-9.75-9.75 4.3652-9.75 9.75-9.75 9.75 4.3652 9.75 9.75z"/>
        </g>
      </g>
      <g id="g4843" transform="translate(0 -.54546)">
        <g id="g4379" transform="translate(.0000038147 104)">
          <path id="path4381" transform="matrix(.61538 0 0 .61538 138.58 79.016)" fill="#666" d="m-24.5 142.75c0 5.3848-4.3652 9.75-9.75 9.75s-9.75-4.3652-9.75-9.75 4.3652-9.75 9.75-9.75 9.75 4.3652 9.75 9.75z"/>
          <path id="path4383" transform="matrix(.51064 0 0 .51064 134.99 93.969)" fill="#aaa" d="m-24.5 142.75c0 5.3848-4.3652 9.75-9.75 9.75s-9.75-4.3652-9.75-9.75 4.3652-9.75 9.75-9.75 9.75 4.3652 9.75 9.75z"/>
          <path id="path4385" transform="matrix(.36661 0 0 .36661 130.06 114.53)" fill="#666" d="m-24.5 142.75c0 5.3848-4.3652 9.75-9.75 9.75s-9.75-4.3652-9.75-9.75 4.3652-9.75 9.75-9.75 9.75 4.3652 9.75 9.75z"/>
        </g>
        <g id="g4387" transform="translate(70 104)">
          <path id="path4389" transform="matrix(.61538 0 0 .61538 138.58 79.016)" fill="#666" d="m-24.5 142.75c0 5.3848-4.3652 9.75-9.75 9.75s-9.75-4.3652-9.75-9.75 4.3652-9.75 9.75-9.75 9.75 4.3652 9.75 9.75z"/>
          <path id="path4391" transform="matrix(.51064 0 0 .51064 134.99 93.969)" fill="#aaa" d="m-24.5 142.75c0 5.3848-4.3652 9.75-9.75 9.75s-9.75-4.3652-9.75-9.75 4.3652-9.75 9.75-9.75 9.75 4.3652 9.75 9.75z"/>
          <path id="path4393" transform="matrix(.36661 0 0 .36661 130.06 114.53)" fill="#666" d="m-24.5 142.75c0 5.3848-4.3652 9.75-9.75 9.75s-9.75-4.3652-9.75-9.75 4.3652-9.75 9.75-9.75 9.75 4.3652 9.75 9.75z"/>
        </g>
        <g id="g4395" transform="translate(52.5 104)">
          <path id="path4397" transform="matrix(.61538 0 0 .61538 138.58 79.016)" fill="#666" d="m-24.5 142.75c0 5.3848-4.3652 9.75-9.75 9.75s-9.75-4.3652-9.75-9.75 4.3652-9.75 9.75-9.75 9.75 4.3652 9.75 9.75z"/>
          <path id="path4399" transform="matrix(.51064 0 0 .51064 134.99 93.969)" fill="#aaa" d="m-24.5 142.75c0 5.3848-4.3652 9.75-9.75 9.75s-9.75-4.3652-9.75-9.75 4.3652-9.75 9.75-9.75 9.75 4.3652 9.75 9.75z"/>
          <path id="path4401" transform="matrix(.36661 0 0 .36661 130.06 114.53)" fill="#666" d="m-24.5 142.75c0 5.3848-4.3652 9.75-9.75 9.75s-9.75-4.3652-9.75-9.75 4.3652-9.75 9.75-9.75 9.75 4.3652 9.75 9.75z"/>
        </g>
        <g id="g4403" transform="translate(35 104)">
          <path id="path4405" transform="matrix(.61538 0 0 .61538 138.58 79.016)" fill="#666" d="m-24.5 142.75c0 5.3848-4.3652 9.75-9.75 9.75s-9.75-4.3652-9.75-9.75 4.3652-9.75 9.75-9.75 9.75 4.3652 9.75 9.75z"/>
          <path id="path4407" transform="matrix(.51064 0 0 .51064 134.99 93.969)" fill="#aaa" d="m-24.5 142.75c0 5.3848-4.3652 9.75-9.75 9.75s-9.75-4.3652-9.75-9.75 4.3652-9.75 9.75-9.75 9.75 4.3652 9.75 9.75z"/>
          <path id="path4409" transform="matrix(.36661 0 0 .36661 130.06 114.53)" fill="#666" d="m-24.5 142.75c0 5.3848-4.3652 9.75-9.75 9.75s-9.75-4.3652-9.75-9.75 4.3652-9.75 9.75-9.75 9.75 4.3652 9.75 9.75z"/>
        </g>
        <g id="g4411" transform="translate(17.5 104)">
          <path id="path4413" transform="matrix(.61538 0 0 .61538 138.58 79.016)" fill="#666" d="m-24.5 142.75c0 5.3848-4.3652 9.75-9.75 9.75s-9.75-4.3652-9.75-9.75 4.3652-9.75 9.75-9.75 9.75 4.3652 9.75 9.75z"/>
          <path id="path4415" transform="matrix(.51064 0 0 .51064 134.99 93.969)" fill="#aaa" d="m-24.5 142.75c0 5.3848-4.3652 9.75-9.75 9.75s-9.75-4.3652-9.75-9.75 4.3652-9.75 9.75-9.75 9.75 4.3652 9.75 9.75z"/>
          <path id="path4417" transform="matrix(.36661 0 0 .36661 130.06 114.53)" fill="#666" d="m-24.5 142.75c0 5.3848-4.3652 9.75-9.75 9.75s-9.75-4.3652-9.75-9.75 4.3652-9.75 9.75-9.75 9.75 4.3652 9.75 9.75z"/>
        </g>
        <g id="g4419" transform="translate(-35,104)">
          <path id="path4421" transform="matrix(.61538 0 0 .61538 138.58 79.016)" fill="#666" d="m-24.5 142.75c0 5.3848-4.3652 9.75-9.75 9.75s-9.75-4.3652-9.75-9.75 4.3652-9.75 9.75-9.75 9.75 4.3652 9.75 9.75z"/>
          <path id="path4423" transform="matrix(.51064 0 0 .51064 134.99 93.969)" fill="#aaa" d="m-24.5 142.75c0 5.3848-4.3652 9.75-9.75 9.75s-9.75-4.3652-9.75-9.75 4.3652-9.75 9.75-9.75 9.75 4.3652 9.75 9.75z"/>
          <path id="path4425" transform="matrix(.36661 0 0 .36661 130.06 114.53)" fill="#666" d="m-24.5 142.75c0 5.3848-4.3652 9.75-9.75 9.75s-9.75-4.3652-9.75-9.75 4.3652-9.75 9.75-9.75 9.75 4.3652 9.75 9.75z"/>
        </g>
        <g id="g4427" transform="translate(-17.5 104)">
          <path id="path4429" transform="matrix(.61538 0 0 .61538 138.58 79.016)" fill="#666" d="m-24.5 142.75c0 5.3848-4.3652 9.75-9.75 9.75s-9.75-4.3652-9.75-9.75 4.3652-9.75 9.75-9.75 9.75 4.3652 9.75 9.75z"/>
          <path id="path4431" transform="matrix(.51064 0 0 .51064 134.99 93.969)" fill="#aaa" d="m-24.5 142.75c0 5.3848-4.3652 9.75-9.75 9.75s-9.75-4.3652-9.75-9.75 4.3652-9.75 9.75-9.75 9.75 4.3652 9.75 9.75z"/>
          <path id="path4433" transform="matrix(.36661 0 0 .36661 130.06 114.53)" fill="#666" d="m-24.5 142.75c0 5.3848-4.3652 9.75-9.75 9.75s-9.75-4.3652-9.75-9.75 4.3652-9.75 9.75-9.75 9.75 4.3652 9.75 9.75z"/>
        </g>
      </g>
      <g id="g4873" transform="translate(0 -.86364)">
        <g id="g4435" transform="translate(-10 119)">
          <path id="path4437" transform="matrix(.61538 0 0 .61538 138.58 79.016)" fill="#666" d="m-24.5 142.75c0 5.3848-4.3652 9.75-9.75 9.75s-9.75-4.3652-9.75-9.75 4.3652-9.75 9.75-9.75 9.75 4.3652 9.75 9.75z"/>
          <path id="path4439" transform="matrix(.51064 0 0 .51064 134.99 93.969)" fill="#aaa" d="m-24.5 142.75c0 5.3848-4.3652 9.75-9.75 9.75s-9.75-4.3652-9.75-9.75 4.3652-9.75 9.75-9.75 9.75 4.3652 9.75 9.75z"/>
          <path id="path4441" transform="matrix(.36661 0 0 .36661 130.06 114.53)" fill="#666" d="m-24.5 142.75c0 5.3848-4.3652 9.75-9.75 9.75s-9.75-4.3652-9.75-9.75 4.3652-9.75 9.75-9.75 9.75 4.3652 9.75 9.75z"/>
        </g>
        <g id="g4443" transform="translate(60 119)">
          <path id="path4445" transform="matrix(.61538 0 0 .61538 138.58 79.016)" fill="#666" d="m-24.5 142.75c0 5.3848-4.3652 9.75-9.75 9.75s-9.75-4.3652-9.75-9.75 4.3652-9.75 9.75-9.75 9.75 4.3652 9.75 9.75z"/>
          <path id="path4447" transform="matrix(.51064 0 0 .51064 134.99 93.969)" fill="#aaa" d="m-24.5 142.75c0 5.3848-4.3652 9.75-9.75 9.75s-9.75-4.3652-9.75-9.75 4.3652-9.75 9.75-9.75 9.75 4.3652 9.75 9.75z"/>
          <path id="path4449" transform="matrix(.36661 0 0 .36661 130.06 114.53)" fill="#666" d="m-24.5 142.75c0 5.3848-4.3652 9.75-9.75 9.75s-9.75-4.3652-9.75-9.75 4.3652-9.75 9.75-9.75 9.75 4.3652 9.75 9.75z"/>
        </g>
        <g id="g4451" transform="translate(42.5 119)">
          <path id="path4453" transform="matrix(.61538 0 0 .61538 138.58 79.016)" fill="#666" d="m-24.5 142.75c0 5.3848-4.3652 9.75-9.75 9.75s-9.75-4.3652-9.75-9.75 4.3652-9.75 9.75-9.75 9.75 4.3652 9.75 9.75z"/>
          <path id="path4455" transform="matrix(.51064 0 0 .51064 134.99 93.969)" fill="#aaa" d="m-24.5 142.75c0 5.3848-4.3652 9.75-9.75 9.75s-9.75-4.3652-9.75-9.75 4.3652-9.75 9.75-9.75 9.75 4.3652 9.75 9.75z"/>
          <path id="path4457" transform="matrix(.36661 0 0 .36661 130.06 114.53)" fill="#666" d="m-24.5 142.75c0 5.3848-4.3652 9.75-9.75 9.75s-9.75-4.3652-9.75-9.75 4.3652-9.75 9.75-9.75 9.75 4.3652 9.75 9.75z"/>
        </g>
        <g id="g4459" transform="translate(25 119)">
          <path id="path4461" transform="matrix(.61538 0 0 .61538 138.58 79.016)" fill="#666" d="m-24.5 142.75c0 5.3848-4.3652 9.75-9.75 9.75s-9.75-4.3652-9.75-9.75 4.3652-9.75 9.75-9.75 9.75 4.3652 9.75 9.75z"/>
          <path id="path4463" transform="matrix(.51064 0 0 .51064 134.99 93.969)" fill="#aaa" d="m-24.5 142.75c0 5.3848-4.3652 9.75-9.75 9.75s-9.75-4.3652-9.75-9.75 4.3652-9.75 9.75-9.75 9.75 4.3652 9.75 9.75z"/>
          <path id="path4465" transform="matrix(.36661 0 0 .36661 130.06 114.53)" fill="#666" d="m-24.5 142.75c0 5.3848-4.3652 9.75-9.75 9.75s-9.75-4.3652-9.75-9.75 4.3652-9.75 9.75-9.75 9.75 4.3652 9.75 9.75z"/>
        </g>
        <g id="g4467" transform="translate(7.5 119)">
          <path id="path4469" transform="matrix(.61538 0 0 .61538 138.58 79.016)" fill="#666" d="m-24.5 142.75c0 5.3848-4.3652 9.75-9.75 9.75s-9.75-4.3652-9.75-9.75 4.3652-9.75 9.75-9.75 9.75 4.3652 9.75 9.75z"/>
          <path id="path4471" transform="matrix(.51064 0 0 .51064 134.99 93.969)" fill="#aaa" d="m-24.5 142.75c0 5.3848-4.3652 9.75-9.75 9.75s-9.75-4.3652-9.75-9.75 4.3652-9.75 9.75-9.75 9.75 4.3652 9.75 9.75z"/>
          <path id="path4473" transform="matrix(.36661 0 0 .36661 130.06 114.53)" fill="#666" d="m-24.5 142.75c0 5.3848-4.3652 9.75-9.75 9.75s-9.75-4.3652-9.75-9.75 4.3652-9.75 9.75-9.75 9.75 4.3652 9.75 9.75z"/>
        </g>
        <g id="g4475" transform="translate(-45,119)">
          <path id="path4477" transform="matrix(.61538 0 0 .61538 138.58 79.016)" fill="#666" d="m-24.5 142.75c0 5.3848-4.3652 9.75-9.75 9.75s-9.75-4.3652-9.75-9.75 4.3652-9.75 9.75-9.75 9.75 4.3652 9.75 9.75z"/>
          <path id="path4479" transform="matrix(.51064 0 0 .51064 134.99 93.969)" fill="#aaa" d="m-24.5 142.75c0 5.3848-4.3652 9.75-9.75 9.75s-9.75-4.3652-9.75-9.75 4.3652-9.75 9.75-9.75 9.75 4.3652 9.75 9.75z"/>
          <path id="path4481" transform="matrix(.36661 0 0 .36661 130.06 114.53)" fill="#666" d="m-24.5 142.75c0 5.3848-4.3652 9.75-9.75 9.75s-9.75-4.3652-9.75-9.75 4.3652-9.75 9.75-9.75 9.75 4.3652 9.75 9.75z"/>
        </g>
        <g id="g4483" transform="translate(-27.5 119)">
          <path id="path4485" transform="matrix(.61538 0 0 .61538 138.58 79.016)" fill="#666" d="m-24.5 142.75c0 5.3848-4.3652 9.75-9.75 9.75s-9.75-4.3652-9.75-9.75 4.3652-9.75 9.75-9.75 9.75 4.3652 9.75 9.75z"/>
          <path id="path4487" transform="matrix(.51064 0 0 .51064 134.99 93.969)" fill="#aaa" d="m-24.5 142.75c0 5.3848-4.3652 9.75-9.75 9.75s-9.75-4.3652-9.75-9.75 4.3652-9.75 9.75-9.75 9.75 4.3652 9.75 9.75z"/>
          <path id="path4489" transform="matrix(.36661 0 0 .36661 130.06 114.53)" fill="#666" d="m-24.5 142.75c0 5.3848-4.3652 9.75-9.75 9.75s-9.75-4.3652-9.75-9.75 4.3652-9.75 9.75-9.75 9.75 4.3652 9.75 9.75z"/>
        </g>
      </g>
      <g id="g4903" transform="translate(0 .31818)">
        <g id="g4491" transform="translate(.0000038147 132.5)">
          <path id="path4493" transform="matrix(.61538 0 0 .61538 138.58 79.016)" fill="#666" d="m-24.5 142.75c0 5.3848-4.3652 9.75-9.75 9.75s-9.75-4.3652-9.75-9.75 4.3652-9.75 9.75-9.75 9.75 4.3652 9.75 9.75z"/>
          <path id="path4495" transform="matrix(.51064 0 0 .51064 134.99 93.969)" fill="#aaa" d="m-24.5 142.75c0 5.3848-4.3652 9.75-9.75 9.75s-9.75-4.3652-9.75-9.75 4.3652-9.75 9.75-9.75 9.75 4.3652 9.75 9.75z"/>
          <path id="path4497" transform="matrix(.36661 0 0 .36661 130.06 114.53)" fill="#666" d="m-24.5 142.75c0 5.3848-4.3652 9.75-9.75 9.75s-9.75-4.3652-9.75-9.75 4.3652-9.75 9.75-9.75 9.75 4.3652 9.75 9.75z"/>
        </g>
        <g id="g4499" transform="translate(70 132.5)">
          <path id="path4501" transform="matrix(.61538 0 0 .61538 138.58 79.016)" fill="#666" d="m-24.5 142.75c0 5.3848-4.3652 9.75-9.75 9.75s-9.75-4.3652-9.75-9.75 4.3652-9.75 9.75-9.75 9.75 4.3652 9.75 9.75z"/>
          <path id="path4503" transform="matrix(.51064 0 0 .51064 134.99 93.969)" fill="#aaa" d="m-24.5 142.75c0 5.3848-4.3652 9.75-9.75 9.75s-9.75-4.3652-9.75-9.75 4.3652-9.75 9.75-9.75 9.75 4.3652 9.75 9.75z"/>
          <path id="path4505" transform="matrix(.36661 0 0 .36661 130.06 114.53)" fill="#666" d="m-24.5 142.75c0 5.3848-4.3652 9.75-9.75 9.75s-9.75-4.3652-9.75-9.75 4.3652-9.75 9.75-9.75 9.75 4.3652 9.75 9.75z"/>
        </g>
        <g id="g4507" transform="translate(52.5 132.5)">
          <path id="path4509" transform="matrix(.61538 0 0 .61538 138.58 79.016)" fill="#666" d="m-24.5 142.75c0 5.3848-4.3652 9.75-9.75 9.75s-9.75-4.3652-9.75-9.75 4.3652-9.75 9.75-9.75 9.75 4.3652 9.75 9.75z"/>
          <path id="path4511" transform="matrix(.51064 0 0 .51064 134.99 93.969)" fill="#aaa" d="m-24.5 142.75c0 5.3848-4.3652 9.75-9.75 9.75s-9.75-4.3652-9.75-9.75 4.3652-9.75 9.75-9.75 9.75 4.3652 9.75 9.75z"/>
          <path id="path4513" transform="matrix(.36661 0 0 .36661 130.06 114.53)" fill="#666" d="m-24.5 142.75c0 5.3848-4.3652 9.75-9.75 9.75s-9.75-4.3652-9.75-9.75 4.3652-9.75 9.75-9.75 9.75 4.3652 9.75 9.75z"/>
        </g>
        <g id="g4515" transform="translate(35 132.5)">
          <path id="path4517" transform="matrix(.61538 0 0 .61538 138.58 79.016)" fill="#666" d="m-24.5 142.75c0 5.3848-4.3652 9.75-9.75 9.75s-9.75-4.3652-9.75-9.75 4.3652-9.75 9.75-9.75 9.75 4.3652 9.75 9.75z"/>
          <path id="path4519" transform="matrix(.51064 0 0 .51064 134.99 93.969)" fill="#aaa" d="m-24.5 142.75c0 5.3848-4.3652 9.75-9.75 9.75s-9.75-4.3652-9.75-9.75 4.3652-9.75 9.75-9.75 9.75 4.3652 9.75 9.75z"/>
          <path id="path4521" transform="matrix(.36661 0 0 .36661 130.06 114.53)" fill="#666" d="m-24.5 142.75c0 5.3848-4.3652 9.75-9.75 9.75s-9.75-4.3652-9.75-9.75 4.3652-9.75 9.75-9.75 9.75 4.3652 9.75 9.75z"/>
        </g>
        <g id="g4523" transform="translate(17.5 132.5)">
          <path id="path4525" transform="matrix(.61538 0 0 .61538 138.58 79.016)" fill="#666" d="m-24.5 142.75c0 5.3848-4.3652 9.75-9.75 9.75s-9.75-4.3652-9.75-9.75 4.3652-9.75 9.75-9.75 9.75 4.3652 9.75 9.75z"/>
          <path id="path4527" transform="matrix(.51064 0 0 .51064 134.99 93.969)" fill="#aaa" d="m-24.5 142.75c0 5.3848-4.3652 9.75-9.75 9.75s-9.75-4.3652-9.75-9.75 4.3652-9.75 9.75-9.75 9.75 4.3652 9.75 9.75z"/>
          <path id="path4529" transform="matrix(.36661 0 0 .36661 130.06 114.53)" fill="#666" d="m-24.5 142.75c0 5.3848-4.3652 9.75-9.75 9.75s-9.75-4.3652-9.75-9.75 4.3652-9.75 9.75-9.75 9.75 4.3652 9.75 9.75z"/>
        </g>
        <g id="g4531" transform="translate(-35,132.5)">
          <path id="path4533" transform="matrix(.61538 0 0 .61538 138.58 79.016)" fill="#666" d="m-24.5 142.75c0 5.3848-4.3652 9.75-9.75 9.75s-9.75-4.3652-9.75-9.75 4.3652-9.75 9.75-9.75 9.75 4.3652 9.75 9.75z"/>
          <path id="path4535" transform="matrix(.51064 0 0 .51064 134.99 93.969)" fill="#aaa" d="m-24.5 142.75c0 5.3848-4.3652 9.75-9.75 9.75s-9.75-4.3652-9.75-9.75 4.3652-9.75 9.75-9.75 9.75 4.3652 9.75 9.75z"/>
          <path id="path4537" transform="matrix(.36661 0 0 .36661 130.06 114.53)" fill="#666" d="m-24.5 142.75c0 5.3848-4.3652 9.75-9.75 9.75s-9.75-4.3652-9.75-9.75 4.3652-9.75 9.75-9.75 9.75 4.3652 9.75 9.75z"/>
        </g>
        <g id="g4539" transform="translate(-17.5 132.5)">
          <path id="path4541" transform="matrix(.61538 0 0 .61538 138.58 79.016)" fill="#666" d="m-24.5 142.75c0 5.3848-4.3652 9.75-9.75 9.75s-9.75-4.3652-9.75-9.75 4.3652-9.75 9.75-9.75 9.75 4.3652 9.75 9.75z"/>
          <path id="path4543" transform="matrix(.51064 0 0 .51064 134.99 93.969)" fill="#aaa" d="m-24.5 142.75c0 5.3848-4.3652 9.75-9.75 9.75s-9.75-4.3652-9.75-9.75 4.3652-9.75 9.75-9.75 9.75 4.3652 9.75 9.75z"/>
          <path id="path4545" transform="matrix(.36661 0 0 .36661 130.06 114.53)" fill="#666" d="m-24.5 142.75c0 5.3848-4.3652 9.75-9.75 9.75s-9.75-4.3652-9.75-9.75 4.3652-9.75 9.75-9.75 9.75 4.3652 9.75 9.75z"/>
        </g>
      </g>
      <g id="g4933" transform="translate(0,1.975e-6)">
        <g id="g4547" transform="translate(-10 147.5)">
          <path id="path4549" transform="matrix(.61538 0 0 .61538 138.58 79.016)" fill="#666" d="m-24.5 142.75c0 5.3848-4.3652 9.75-9.75 9.75s-9.75-4.3652-9.75-9.75 4.3652-9.75 9.75-9.75 9.75 4.3652 9.75 9.75z"/>
          <path id="path4551" transform="matrix(.51064 0 0 .51064 134.99 93.969)" fill="#aaa" d="m-24.5 142.75c0 5.3848-4.3652 9.75-9.75 9.75s-9.75-4.3652-9.75-9.75 4.3652-9.75 9.75-9.75 9.75 4.3652 9.75 9.75z"/>
          <path id="path4553" transform="matrix(.36661 0 0 .36661 130.06 114.53)" fill="#666" d="m-24.5 142.75c0 5.3848-4.3652 9.75-9.75 9.75s-9.75-4.3652-9.75-9.75 4.3652-9.75 9.75-9.75 9.75 4.3652 9.75 9.75z"/>
        </g>
        <g id="g4555" transform="translate(60 147.5)">
          <path id="path4557" transform="matrix(.61538 0 0 .61538 138.58 79.016)" fill="#666" d="m-24.5 142.75c0 5.3848-4.3652 9.75-9.75 9.75s-9.75-4.3652-9.75-9.75 4.3652-9.75 9.75-9.75 9.75 4.3652 9.75 9.75z"/>
          <path id="path4559" transform="matrix(.51064 0 0 .51064 134.99 93.969)" fill="#aaa" d="m-24.5 142.75c0 5.3848-4.3652 9.75-9.75 9.75s-9.75-4.3652-9.75-9.75 4.3652-9.75 9.75-9.75 9.75 4.3652 9.75 9.75z"/>
          <path id="path4561" transform="matrix(.36661 0 0 .36661 130.06 114.53)" fill="#666" d="m-24.5 142.75c0 5.3848-4.3652 9.75-9.75 9.75s-9.75-4.3652-9.75-9.75 4.3652-9.75 9.75-9.75 9.75 4.3652 9.75 9.75z"/>
        </g>
        <g id="g4563" transform="translate(42.5 147.5)">
          <path id="path4565" transform="matrix(.61538 0 0 .61538 138.58 79.016)" fill="#666" d="m-24.5 142.75c0 5.3848-4.3652 9.75-9.75 9.75s-9.75-4.3652-9.75-9.75 4.3652-9.75 9.75-9.75 9.75 4.3652 9.75 9.75z"/>
          <path id="path4567" transform="matrix(.51064 0 0 .51064 134.99 93.969)" fill="#aaa" d="m-24.5 142.75c0 5.3848-4.3652 9.75-9.75 9.75s-9.75-4.3652-9.75-9.75 4.3652-9.75 9.75-9.75 9.75 4.3652 9.75 9.75z"/>
          <path id="path4569" transform="matrix(.36661 0 0 .36661 130.06 114.53)" fill="#666" d="m-24.5 142.75c0 5.3848-4.3652 9.75-9.75 9.75s-9.75-4.3652-9.75-9.75 4.3652-9.75 9.75-9.75 9.75 4.3652 9.75 9.75z"/>
        </g>
        <g id="g4571" transform="translate(25 147.5)">
          <path id="path4573" transform="matrix(.61538 0 0 .61538 138.58 79.016)" fill="#666" d="m-24.5 142.75c0 5.3848-4.3652 9.75-9.75 9.75s-9.75-4.3652-9.75-9.75 4.3652-9.75 9.75-9.75 9.75 4.3652 9.75 9.75z"/>
          <path id="path4575" transform="matrix(.51064 0 0 .51064 134.99 93.969)" fill="#aaa" d="m-24.5 142.75c0 5.3848-4.3652 9.75-9.75 9.75s-9.75-4.3652-9.75-9.75 4.3652-9.75 9.75-9.75 9.75 4.3652 9.75 9.75z"/>
          <path id="path4577" transform="matrix(.36661 0 0 .36661 130.06 114.53)" fill="#666" d="m-24.5 142.75c0 5.3848-4.3652 9.75-9.75 9.75s-9.75-4.3652-9.75-9.75 4.3652-9.75 9.75-9.75 9.75 4.3652 9.75 9.75z"/>
        </g>
        <g id="g4579" transform="translate(7.5 147.5)">
          <path id="path4581" transform="matrix(.61538 0 0 .61538 138.58 79.016)" fill="#666" d="m-24.5 142.75c0 5.3848-4.3652 9.75-9.75 9.75s-9.75-4.3652-9.75-9.75 4.3652-9.75 9.75-9.75 9.75 4.3652 9.75 9.75z"/>
          <path id="path4583" transform="matrix(.51064 0 0 .51064 134.99 93.969)" fill="#aaa" d="m-24.5 142.75c0 5.3848-4.3652 9.75-9.75 9.75s-9.75-4.3652-9.75-9.75 4.3652-9.75 9.75-9.75 9.75 4.3652 9.75 9.75z"/>
          <path id="path4585" transform="matrix(.36661 0 0 .36661 130.06 114.53)" fill="#666" d="m-24.5 142.75c0 5.3848-4.3652 9.75-9.75 9.75s-9.75-4.3652-9.75-9.75 4.3652-9.75 9.75-9.75 9.75 4.3652 9.75 9.75z"/>
        </g>
        <g id="g4587" transform="translate(-45,147.5)">
          <path id="path4589" transform="matrix(.61538 0 0 .61538 138.58 79.016)" fill="#666" d="m-24.5 142.75c0 5.3848-4.3652 9.75-9.75 9.75s-9.75-4.3652-9.75-9.75 4.3652-9.75 9.75-9.75 9.75 4.3652 9.75 9.75z"/>
          <path id="path4591" transform="matrix(.51064 0 0 .51064 134.99 93.969)" fill="#aaa" d="m-24.5 142.75c0 5.3848-4.3652 9.75-9.75 9.75s-9.75-4.3652-9.75-9.75 4.3652-9.75 9.75-9.75 9.75 4.3652 9.75 9.75z"/>
          <path id="path4593" transform="matrix(.36661 0 0 .36661 130.06 114.53)" fill="#666" d="m-24.5 142.75c0 5.3848-4.3652 9.75-9.75 9.75s-9.75-4.3652-9.75-9.75 4.3652-9.75 9.75-9.75 9.75 4.3652 9.75 9.75z"/>
        </g>
        <g id="g4595" transform="translate(-27.5 147.5)">
          <path id="path4597" transform="matrix(.61538 0 0 .61538 138.58 79.016)" fill="#666" d="m-24.5 142.75c0 5.3848-4.3652 9.75-9.75 9.75s-9.75-4.3652-9.75-9.75 4.3652-9.75 9.75-9.75 9.75 4.3652 9.75 9.75z"/>
          <path id="path4599" transform="matrix(.51064 0 0 .51064 134.99 93.969)" fill="#aaa" d="m-24.5 142.75c0 5.3848-4.3652 9.75-9.75 9.75s-9.75-4.3652-9.75-9.75 4.3652-9.75 9.75-9.75 9.75 4.3652 9.75 9.75z"/>
          <path id="path4601" transform="matrix(.36661 0 0 .36661 130.06 114.53)" fill="#666" d="m-24.5 142.75c0 5.3848-4.3652 9.75-9.75 9.75s-9.75-4.3652-9.75-9.75 4.3652-9.75 9.75-9.75 9.75 4.3652 9.75 9.75z"/>
        </g>
      </g>
    </g>
    <path id="path3897" d="m237.19 170.14c-4.505 0-8.125 3.62-8.125 8.125s3.62 8.1562 8.125 8.1562h95.469c4.505 0 8.125-3.6513 8.125-8.1562 0-4.505-3.62-8.125-8.125-8.125h-95.469zm47.562 1.25c16.073 0.004 32.146 0.0105 48.219 0 7.3405-0.0863 8.9441 11.362 1.9688 13.406-17.148 0.94434-34.522 0.0741-51.75 0.375-16.105-0.3558-32.406 0.67078-48.406-0.4375-6.7042-2.0737-5.31-13.073 1.75-13.312 16.071-0.0366 32.145-0.0352 48.219-0.0312zm-47.562 20.688c-4.505 0-8.125 3.62-8.125 8.125s3.62 8.125 8.125 8.125h95.469c4.505 0 8.125-3.62 8.125-8.125s-3.62-8.125-8.125-8.125h-95.469zm48.094 1.2188c16.249-0.0122 32.485 0.0197 48.719 0.15625 6.7994 0.92348 7.3776 11.668 0.71875 13.312-17.429 0.77806-35.038 0.0682-52.531 0.3125-15.761-0.357-31.72 0.67249-47.375-0.4375-6.7589-1.9789-5.3372-13.064 1.7188-13.281 16.24 0.006 32.501-0.0503 48.75-0.0625zm-48.094 20.688c-4.505 0-8.125 3.62-8.125 8.125s3.62 8.125 8.125 8.125h95.469c4.505 0 8.125-3.62 8.125-8.125s-3.62-8.125-8.125-8.125h-95.469zm48.094 1.2188c16.249-0.0122 32.485 0.0197 48.719 0.15625 6.7994 0.92348 7.3776 11.668 0.71875 13.312-17.429 0.77806-35.038 0.0682-52.531 0.3125-15.761-0.357-31.72 0.67249-47.375-0.4375-6.7589-1.9789-5.3372-13.064 1.7188-13.281 16.24 0.006 32.501-0.0503 48.75-0.0625zm-48.094 20.688c-4.505 0-8.125 3.6513-8.125 8.1562 0 4.505 3.62 8.125 8.125 8.125h95.469c4.505 0 8.125-3.62 8.125-8.125s-3.62-8.1562-8.125-8.1562h-95.469zm47.562 1.25c16.073 0.004 32.146 0.0105 48.219 0 7.4292-0.0769 8.9549 11.669 1.75 13.469-17.429 0.77806-35.038 0.0682-52.531 0.3125-15.761-0.357-31.72 0.67249-47.375-0.4375-6.7634-1.9872-5.3304-13.061 1.7188-13.312 16.071-0.0366 32.145-0.0352 48.219-0.0312zm-47.562 20.688c-4.505 0-8.125 3.62-8.125 8.125s3.62 8.125 8.125 8.125h95.469c4.505 0 8.125-3.62 8.125-8.125s-3.62-8.125-8.125-8.125h-95.469zm48.094 1.2188c16.249-0.0122 32.485 0.0197 48.719 0.15625 6.7994 0.92348 7.3776 11.668 0.71875 13.312-17.429 0.77806-35.038 0.0682-52.531 0.3125-15.761-0.357-31.72 0.67249-47.375-0.4375-6.7589-1.9789-5.3372-13.064 1.7188-13.281 16.24 0.006 32.501-0.0503 48.75-0.0625zm-48.094 20.688c-4.505 0-8.125 3.6513-8.125 8.1562 0 4.505 3.62 8.125 8.125 8.125h95.469c4.505 0 8.125-3.62 8.125-8.125s-3.62-8.1562-8.125-8.1562h-95.469zm47.562 1.25c16.073 0.004 32.146 0.0105 48.219 0 7.4292-0.0769 8.9549 11.669 1.75 13.469-17.429 0.77806-35.038 0.0682-52.531 0.3125-15.761-0.357-31.72 0.67249-47.375-0.4375-6.7634-1.9872-5.3304-13.061 1.7188-13.312 16.071-0.0365 32.145-0.0352 48.219-0.0312zm-47.562 20.688c-4.505 0-8.125 3.62-8.125 8.125s3.62 8.125 8.125 8.125h95.469c4.505 0 8.125-3.62 8.125-8.125s-3.62-8.125-8.125-8.125h-95.469zm48.094 1.2188c16.249-0.0122 32.485 0.0197 48.719 0.15625 6.7994 0.92348 7.3776 11.668 0.71875 13.312-17.429 0.77806-35.038 0.0682-52.531 0.3125-15.761-0.357-31.72 0.67249-47.375-0.4375-6.7589-1.9789-5.3372-13.064 1.7188-13.281 16.24 0.006 32.501-0.0503 48.75-0.0625z" fill="#666"/>
    <path id="path5319" d="m386.31 308.17c-0.37854-0.0202-0.76993-0.00029-1.1562 0.0312-7.9672-0.0818-12.562 10.967-6.875 16.562 4.8733 5.9548 15.977 2.9769 17.062-4.7188 1.2782-5.6415-3.3532-11.573-9.0312-11.875zm-0.6875 1.1562c4.5446 0 8.2188 3.7054 8.2188 8.25s-3.6741 8.2188-8.2188 8.2188c-4.5446 0-8.25-3.6741-8.25-8.2188 0-4.5446 3.7054-8.25 8.25-8.25z" fill="#ad9c5b"/>
    <path id="path5324" fill="#ad9c5b" d="m490.31 308.17c-0.37854-0.0202-0.76993-0.00029-1.1562 0.0312-7.9672-0.0818-12.562 10.967-6.875 16.562 4.8733 5.9548 15.977 2.9769 17.062-4.7188 1.2782-5.6415-3.3532-11.573-9.0312-11.875zm-0.6875 1.1562c4.5446 0 8.2188 3.7054 8.2188 8.25s-3.6741 8.2188-8.2188 8.2188c-4.5446 0-8.25-3.6741-8.25-8.2188 0-4.5446 3.7054-8.25 8.25-8.25z"/>
  </g>
  <metadata>
    <rdf:RDF>
      <cc:Work>
        <dc:format>image/svg+xml</dc:format>
        <dc:type rdf:resource="http://purl.org/dc/dcmitype/StillImage"/>
        <cc:license rdf:resource="http://creativecommons.org/licenses/publicdomain/"/>
        <dc:publisher>
          <cc:Agent rdf:about="http://openclipart.org/">
            <dc:title>Openclipart</dc:title>
          </cc:Agent>
        </dc:publisher>
        <dc:title>Radio simple</dc:title>
        <dc:date>2013-08-29T05:20:13</dc:date>
        <dc:description/>
        <dc:source>http://openclipart.org/detail/182551/radio-simple-by-tiothy-182551</dc:source>
        <dc:creator>
          <cc:Agent>
            <dc:title>tiothy</dc:title>
          </cc:Agent>
        </dc:creator>
        <dc:subject>
          <rdf:Bag>
            <rdf:li>antique</rdf:li>
            <rdf:li>cartoon</rdf:li>
            <rdf:li>old fashioned</rdf:li>
            <rdf:li>radio</rdf:li>
            <rdf:li>wood</rdf:li>
          </rdf:Bag>
        </dc:subject>
      </cc:Work>
      <cc:License rdf:about="http://creativecommons.org/licenses/publicdomain/">
        <cc:permits rdf:resource="http://creativecommons.org/ns#Reproduction"/>
        <cc:permits rdf:resource="http://creativecommons.org/ns#Distribution"/>
        <cc:permits rdf:resource="http://creativecommons.org/ns#DerivativeWorks"/>
      </cc:License>
    </rdf:RDF>
  </metadata>
</svg>
